#N canvas 72 364 375 323 12;
#X declare -path Fraise;
#X obj 11 9 declare -path Fraise;
#X obj 11 143 pied/pied 0 34210;
#X obj 15 226 fraise_interface;
#X obj 17 260 sequence;
#X obj 16 290 OSCremote/RemoteMaster;
#X obj 296 117 clipX;
#X obj 296 140 clipY;
#X obj 296 162 clipZ;
#X obj 11 34 loadbang;
#X obj 11 63 del 100;
#X msg 11 88 0;
#X obj 46 86 del 4000;
#X msg 46 111 1;
#X obj 76 44 bng 15 250 50 0 empty empty empty 17 7 0 10 -262144 -1
-1;
#X connect 9 0 10 0;
#X connect 9 0 11 0;
#X connect 10 0 1 0;
#X connect 11 0 12 0;
#X connect 12 0 1 0;
#X connect 13 0 9 0;
