#N canvas 438 515 1020 550 12;
#X obj 11 12 fruit/fruit 1 motorX 20 motorX_fw;
#X obj 220 13 dcmotor/motor motorX 120 motor;
#X obj 39 135 fruit/send2 motorX;
#X msg 111 110 WRITE;
#X msg 112 285 WRITE;
#X obj 40 310 fruit/send2 motorY;
#X msg 113 464 WRITE;
#X obj 12 187 fruit/fruit 1 motorY 21 motorY_fw;
#X obj 41 489 fruit/send2 motorZ;
#X obj 222 367 dcmotor/motor motorZ 120 motor;
#X obj 221 188 dcmotor/motor motorY 120 motor;
#X obj 13 366 fruit/fruit 1 motorZ 22 motorY_fw;
#N canvas 700 113 971 624 test-X 1;
#X obj 39 135 fruit/send2 motorX;
#X msg 39 101 c 120 c 4 i \$1;
#X obj 42 69 hsl 128 15 -1023 1023 0 0 empty empty empty -2 -8 0 10
-262144 -1 -1 0 1;
#X msg 39 34 0;
#X obj 244 3 fruit/receive motorX;
#X obj 244 28 analog/parse;
#X obj 244 53 route 0;
#X floatatom 244 147 5 0 0 0 - - -;
#X obj 244 84 - 4096;
#X obj 244 115 - 50;
#X obj 272 171 mavg 30;
#X floatatom 244 199 5 0 0 0 - - -;
#X text 311 97 136 mV/A à 5 Vcc;
#X text 313 113 5V=8192: 0.61mV/step;
#X text 316 131 136/0.61 =223 step/A;
#X obj 244 248 * 1000;
#X floatatom 244 273 5 0 0 0 mA - -;
#X obj 244 223 / 223;
#X obj 488 81 route 10;
#X obj 488 106 list split 2;
#X obj 581 105 list split 2;
#X obj 488 131 unpack f f;
#X obj 488 156 * 256;
#X obj 488 181 +;
#X floatatom 488 237 8 0 0 3 pos - -;
#X obj 581 130 unpack f f;
#X obj 581 158 tgl 15 0 empty empty lowSw 0 23 0 10 -262144 -1 -1 0
1;
#X obj 677 105 list split 2;
#X obj 677 130 unpack f f;
#X obj 677 155 * 256;
#X obj 677 180 +;
#X floatatom 677 244 5 0 0 3 pwm - -;
#X obj 771 105 list split 2;
#X obj 771 130 unpack f f;
#X obj 771 155 * 256;
#X obj 771 180 +;
#X floatatom 771 211 5 0 0 3 ramp - -;
#X obj 640 156 tgl 15 0 empty empty hiSw 0 23 0 10 -262144 -1 -1 0
1;
#X obj 864 104 list split 1;
#X obj 864 133 tgl 15 0 empty empty homed 0 23 0 10 -262144 -1 -1 1
1;
#N canvas 908 392 450 300 (subpatch) 0;
#X obj 37 37 inlet;
#X obj 37 62 moses 32768;
#X obj 111 141 outlet;
#X obj 111 116 - 65536;
#X obj 111 91 * 1;
#X connect 0 0 1 0;
#X connect 1 0 2 0;
#X connect 1 1 4 0;
#X connect 3 0 2 0;
#X connect 4 0 3 0;
#X restore 677 205 pd;
#N canvas 856 392 450 300 (subpatch) 0;
#X obj 37 37 inlet;
#X obj 37 86 moses 32768;
#X obj 111 165 outlet;
#X obj 111 140 - 65536;
#X obj 111 115 * 1;
#X obj 37 61 change;
#X connect 0 0 5 0;
#X connect 1 0 2 0;
#X connect 1 1 4 0;
#X connect 3 0 2 0;
#X connect 4 0 3 0;
#X connect 5 0 1 0;
#X restore 488 209 pd;
#X obj 380 368 s motorX-motor-ramp-params;
#X msg 380 344 dest \$1;
#X msg 296 318 0;
#X msg 497 314 10000;
#X msg 418 314 5000;
#X msg 369 317 2000;
#X obj 245 317 print;
#X obj 614 286 hsl 128 15 -1023 1023 0 0 empty empty empty -2 -8 0
10 -262144 -1 -1 6350 1;
#X msg 336 317 800;
#X text 696 360 800 steps/tour;
#X obj 629 357 / 800;
#X obj 629 382 * 3.14159;
#X obj 629 407 * 100;
#X text 678 409 wheel diameter in mm;
#X floatatom 629 432 5 0 0 1 mm - -;
#X obj 637 462 i;
#X obj 637 508 / 1000;
#X floatatom 637 533 8 0 0 0 - - -;
#X obj 329 467 / 100;
#X obj 329 492 / 3.14159;
#X obj 329 517 * 800;
#X msg 328 436 0;
#X msg 412 433 1000;
#X text 193 437 destination in mm:;
#X msg 370 431 100;
#X obj 18 583 hsl 900 15 0 2.7 0 0 empty empty empty -2 -8 0 10 -262144
-1 -1 0 1;
#X obj 637 485 change;
#X msg 459 433 2700;
#X obj 477 502 timer;
#X obj 459 458 b;
#X obj 509 477 bng 15 250 50 0 empty empty empty 17 7 0 10 -262144
-1 -1;
#X floatatom 477 527 7 0 0 0 - - -;
#X obj 18 562 hsl 900 15 0 2.7 0 0 empty empty empty -2 -8 0 10 -262144
-1 -1 0 1;
#X obj 61 517 * 1000;
#X connect 1 0 0 0;
#X connect 2 0 1 0;
#X connect 3 0 2 0;
#X connect 4 0 5 0;
#X connect 4 0 18 0;
#X connect 5 0 6 0;
#X connect 6 0 8 0;
#X connect 7 0 11 0;
#X connect 8 0 9 0;
#X connect 9 0 7 0;
#X connect 11 0 17 0;
#X connect 15 0 16 0;
#X connect 17 0 15 0;
#X connect 18 0 19 0;
#X connect 19 0 21 0;
#X connect 19 1 20 0;
#X connect 20 0 25 0;
#X connect 20 1 27 0;
#X connect 21 0 22 0;
#X connect 21 1 23 1;
#X connect 22 0 23 0;
#X connect 23 0 41 0;
#X connect 24 0 52 0;
#X connect 25 0 26 0;
#X connect 25 1 37 0;
#X connect 27 0 28 0;
#X connect 27 1 32 0;
#X connect 28 0 29 0;
#X connect 28 1 30 1;
#X connect 29 0 30 0;
#X connect 30 0 40 0;
#X connect 31 0 49 0;
#X connect 32 0 33 0;
#X connect 32 1 38 0;
#X connect 33 0 34 0;
#X connect 33 1 35 1;
#X connect 34 0 35 0;
#X connect 35 0 36 0;
#X connect 38 0 39 0;
#X connect 40 0 31 0;
#X connect 41 0 24 0;
#X connect 43 0 42 0;
#X connect 44 0 43 0;
#X connect 45 0 43 0;
#X connect 46 0 43 0;
#X connect 47 0 43 0;
#X connect 50 0 43 0;
#X connect 52 0 53 0;
#X connect 53 0 54 0;
#X connect 54 0 56 0;
#X connect 56 0 57 0;
#X connect 57 0 68 0;
#X connect 58 0 59 0;
#X connect 59 0 67 0;
#X connect 60 0 61 0;
#X connect 61 0 62 0;
#X connect 62 0 43 0;
#X connect 63 0 60 0;
#X connect 64 0 60 0;
#X connect 66 0 60 0;
#X connect 68 0 58 0;
#X connect 69 0 60 0;
#X connect 69 0 71 0;
#X connect 70 0 73 0;
#X connect 71 0 70 0;
#X connect 72 0 70 1;
#X connect 74 0 75 0;
#X connect 75 0 60 0;
#X restore 785 33 pd test-X;
#X connect 3 0 2 1;
#X connect 4 0 5 1;
#X connect 6 0 8 1;
