#N canvas 47 91 1060 652 12;
#X obj 27 34 route 10;
#X obj 27 59 list split 2;
#X obj 120 58 list split 2;
#X obj 27 84 unpack f f;
#X obj 27 109 * 256;
#X obj 27 134 +;
#X floatatom 57 165 8 0 0 3 pos - -;
#X obj 120 83 unpack f f;
#X obj 96 225 tgl 15 0 empty empty lowSw 0 23 0 10 -262144 -1 -1 1
1;
#X obj 216 58 list split 2;
#X obj 216 83 unpack f f;
#X obj 216 108 * 256;
#X obj 216 133 +;
#X floatatom 216 207 5 0 0 3 pwm - -;
#X obj 310 58 list split 2;
#X obj 310 83 unpack f f;
#X obj 310 108 * 256;
#X obj 310 133 +;
#X floatatom 361 187 5 0 0 3 ramp - -;
#X obj 170 228 tgl 15 0 empty empty hiSw 0 23 0 10 -262144 -1 -1 0
1;
#X obj 403 57 list split 1;
#X obj 403 86 tgl 15 0 empty empty homed 0 23 0 10 -262144 -1 -1 1
1;
#N canvas 856 392 450 300 (subpatch) 0;
#X obj 37 37 inlet;
#X obj 37 62 moses 32768;
#X obj 111 141 outlet;
#X obj 111 116 - 65536;
#X obj 111 91 * 1;
#X connect 0 0 1 0;
#X connect 1 0 2 0;
#X connect 1 1 4 0;
#X connect 3 0 2 0;
#X connect 4 0 3 0;
#X restore 216 158 pd;
#N canvas 804 392 450 300 (subpatch) 0;
#X obj 37 37 inlet;
#X obj 37 86 moses 32768;
#X obj 111 165 outlet;
#X obj 111 140 - 65536;
#X obj 111 115 * 1;
#X obj 37 61 change;
#X connect 0 0 5 0;
#X connect 1 0 2 0;
#X connect 1 1 4 0;
#X connect 3 0 2 0;
#X connect 4 0 3 0;
#X connect 5 0 1 0;
#X restore 27 162 pd;
#X obj 218 243 hsl 128 15 -1023 1023 0 0 empty empty empty -2 -8 0
10 -262144 -1 -1 6350 1;
#X obj 137 120 >> 1;
#X obj 171 121 mod 2;
#X obj 131 146 tgl 15 0 empty empty nearSw 0 23 0 10 -262144 -1 -1
1 1;
#X obj 27 8 fruit/receive motor\$1;
#X obj 27 232 / \$2;
#X obj 27 282 * 3.14159;
#X obj 27 332 s axisPos\$1;
#X obj 519 264 r axisGoto\$1;
#X obj 27 257 / \$3;
#X obj 519 341 * \$3;
#X msg 519 367 dest \$1;
#X obj 310 368 f;
#X obj 322 332 t b f;
#X obj 310 603 s axisArrived\$1;
#X obj 310 470 change;
#X obj 288 607 tgl 15 0 empty empty empty 17 7 0 10 -262144 -1 -1 1
1;
#X obj 322 306 route dest;
#X obj 322 281 r motor\$1-motor-ramp-params;
#X obj 519 391 s motor\$1-motor-ramp-params;
#X obj 310 393 -;
#X obj 310 418 abs;
#X obj 310 443 < 1;
#X msg 266 418 0;
#X obj 361 162 change;
#X obj 216 182 change;
#X obj 310 495 sel 0 1, f 15;
#X msg 310 550 0;
#X msg 319 523 stop;
#X msg 361 547 1;
#X obj 310 575 change;
#X msg 219 435 0 \, 1;
#X obj 519 316 / 3.14159;
#X obj 27 307 * \$4;
#X obj 519 291 / \$4;
#X obj 427 174 * 3.14159;
#X obj 427 149 / \$3;
#X obj 427 199 * \$4;
#X obj 427 224 s axisRampPos\$1;
#X obj 628 50 fruit/receive motor\$1;
#X obj 628 75 route present;
#X obj 628 100 s axisConnected\$1;
#X obj 597 188 change -1;
#X obj 597 213 s axisHomed\$1;
#X obj 611 136 sel 0;
#X msg 611 161 0;
#X obj 769 228 r axisDoHome\$1;
#X obj 808 280 t f b;
#X obj 840 330 s motor\$1-motor-params;
#X msg 840 306 homed 0;
#X msg 808 394 c 120 c 4 i \$1;
#X obj 808 421 fruit/send2 motor\$1;
#X msg 670 158 set -1;
#X obj 735 205 del 1;
#X msg 493 559 0;
#X obj 493 501 sel 1;
#X msg 964 393 c 130 c 0;
#X obj 964 366 r axisStop\$1;
#X obj 586 105 tgl 15 0 empty empty empty 17 7 0 10 -262144 -1 -1 1
1;
#X obj 760 87 tgl 15 0 empty empty empty 17 7 0 10 -262144 -1 -1 0
1;
#X obj 361 522 del 500;
#X floatatom 96 400 5 0 0 0 - - -;
#X obj 880 155 r MOTORS_STOP;
#X msg 880 180 0;
#X obj 808 367 clip -1023 1023;
#X obj 137 373 print \$1-lowSwitch;
#X obj 152 337 s lowSwitch\$1;
#X obj 170 295 s hiSwitch\$1;
#X obj 171 163 change;
#X obj 96 200 change;
#X obj 493 530 spigot \$5;
#X text 227 9 motorState Motor(X/Y/Z) stepDiv steps/tr wheelDiam switchOffWhenArrived(0/1)
, f 77;
#X obj 769 253 sel -1;
#X msg 769 278 0;
#X connect 0 0 1 0;
#X connect 1 0 3 0;
#X connect 1 1 2 0;
#X connect 2 0 7 0;
#X connect 2 1 9 0;
#X connect 3 0 4 0;
#X connect 3 1 5 1;
#X connect 4 0 5 0;
#X connect 5 0 23 0;
#X connect 7 0 93 0;
#X connect 7 1 25 0;
#X connect 7 1 26 0;
#X connect 8 0 89 0;
#X connect 8 0 90 0;
#X connect 9 0 10 0;
#X connect 9 1 14 0;
#X connect 10 0 11 0;
#X connect 10 1 12 1;
#X connect 11 0 12 0;
#X connect 12 0 22 0;
#X connect 13 0 24 0;
#X connect 14 0 15 0;
#X connect 14 1 20 0;
#X connect 15 0 16 0;
#X connect 15 1 17 1;
#X connect 16 0 17 0;
#X connect 17 0 36 0;
#X connect 17 0 48 0;
#X connect 19 0 91 0;
#X connect 20 0 21 0;
#X connect 21 0 66 0;
#X connect 22 0 49 0;
#X connect 23 0 6 0;
#X connect 23 0 29 0;
#X connect 25 0 27 0;
#X connect 26 0 92 0;
#X connect 28 0 0 0;
#X connect 29 0 33 0;
#X connect 30 0 57 0;
#X connect 32 0 58 0;
#X connect 33 0 30 0;
#X connect 34 0 35 0;
#X connect 35 0 43 0;
#X connect 36 0 44 0;
#X connect 37 0 47 0;
#X connect 37 1 44 1;
#X connect 39 0 50 0;
#X connect 41 0 37 0;
#X connect 42 0 41 0;
#X connect 44 0 45 0;
#X connect 45 0 46 0;
#X connect 46 0 39 0;
#X connect 47 0 39 0;
#X connect 48 0 18 0;
#X connect 48 0 60 0;
#X connect 49 0 13 0;
#X connect 50 0 51 0;
#X connect 50 0 52 0;
#X connect 50 1 84 0;
#X connect 51 0 54 0;
#X connect 52 0 84 0;
#X connect 53 0 54 0;
#X connect 54 0 38 0;
#X connect 54 0 40 0;
#X connect 54 0 79 0;
#X connect 55 0 39 0;
#X connect 56 0 34 0;
#X connect 57 0 31 0;
#X connect 57 0 85 0;
#X connect 58 0 56 0;
#X connect 59 0 61 0;
#X connect 60 0 59 0;
#X connect 61 0 62 0;
#X connect 63 0 64 0;
#X connect 64 0 65 0;
#X connect 64 0 68 0;
#X connect 64 0 82 0;
#X connect 66 0 67 0;
#X connect 68 0 69 0;
#X connect 69 0 66 0;
#X connect 70 0 96 0;
#X connect 71 0 88 0;
#X connect 71 1 73 0;
#X connect 71 1 77 0;
#X connect 73 0 72 0;
#X connect 74 0 75 0;
#X connect 76 0 66 0;
#X connect 77 0 76 0;
#X connect 78 0 74 0;
#X connect 79 0 94 0;
#X connect 80 0 75 0;
#X connect 81 0 80 0;
#X connect 83 0 65 0;
#X connect 84 0 53 0;
#X connect 86 0 73 0;
#X connect 86 0 87 0;
#X connect 87 0 88 0;
#X connect 88 0 74 0;
#X connect 92 0 19 0;
#X connect 93 0 8 0;
#X connect 94 0 78 0;
#X connect 96 0 97 0;
#X connect 96 1 71 0;
#X connect 97 0 88 0;
