#N canvas 293 128 1095 665 12;
#X obj 71 126 text define Sequence;
#X msg 71 98 read -c Sequence.txt;
#X obj 42 259 text get Sequence;
#X obj 39 149 text size Sequence;
#X obj 39 74 t b b;
#X obj 39 174 s Sequence-size;
#X obj 39 53 bng 15 250 50 0 empty empty empty 17 7 0 10 -262144 -1
-1;
#X obj 39 27 loadbang;
#X obj 42 330 unpack f f f s f;
#X text 54 309 x y z action wait(s);
#X obj 221 334 list split 5;
#X text 217 312 comment;
#X obj 42 284 t a a, f 26;
#X obj 42 460 s \$0-X;
#X obj 69 434 s \$0-Y;
#X obj 96 408 s \$0-Z;
#X obj 123 385 s \$0-action;
#X obj 151 358 s \$0-wait;
#X obj 261 360 s \$0-comment;
#X obj 42 232 r \$0-readStep;
#X obj 609 326 XYgoto \$0;
#X obj 609 374 Zgoto \$0 Z;
#X obj 609 255 bng 15 250 50 0 empty empty empty 17 7 0 10 -262144
-1 -1;
#X obj 175 20 bng 15 250 50 0 empty empty empty 17 7 0 10 -262144 -1
-1;
#X obj 175 43 s \$0-reset;
#X obj 609 517 wait \$0 wait;
#X obj 609 421 wait \$0 __ 2;
#X obj 556 266 bng 15 250 50 0 empty empty empty 17 7 0 10 -262144
-1 -1;
#X obj 177 222 hradio 15 1 0 12 \$0-readStep \$0-readStep readStep
0 -8 0 10 -262144 -1 -1 1;
#X obj 45 509 hsl 500 15 0 2000 0 0 empty axisRampPosX X -14 7 0 10
-262144 -1 -1 9984 1;
#X obj 45 526 hsl 500 15 0 800 0 0 empty axisRampPosY Y -14 7 0 10
-262144 -1 -1 18714 1;
#X obj 45 543 hsl 500 15 0 800 0 0 empty axisRampPosZ Z -14 7 0 10
-262144 -1 -1 18714 1;
#X obj 609 47 t b b;
#X obj 609 72 i;
#X msg 655 46 0;
#X obj 641 73 + 1;
#X obj 609 97 moses, f 19;
#X obj 739 71 r Sequence-size;
#X obj 609 22 r SequencePlay;
#X obj 739 151 s SequenceFinished;
#X obj 739 123 b;
#X obj 609 122 t b f;
#X obj 641 145 s \$0-readStep;
#X obj 197 17 r SequenceReset;
#X obj 321 21 bng 15 250 50 0 empty empty empty 17 7 0 10 -262144 -1
-1;
#N canvas 371 211 450 300 stepIsValid 0;
#X obj 29 22 inlet;
#X obj 29 47 list length;
#X obj 29 72 >= 5;
#X obj 29 97 s \$0-stepIsValid;
#X connect 0 0 1 0;
#X connect 1 0 2 0;
#X connect 2 0 3 0;
#X restore 244 286 pd stepIsValid;
#X obj 609 200 f;
#X obj 609 225 sel 1 0;
#X obj 437 60 r SequencePlay;
#X obj 469 83 r SequenceFinished;
#X obj 437 108 timer;
#X obj 437 133 / 1000;
#X floatatom 437 158 5 0 0 0 - - -;
#X obj 321 42 s SequencePlay;
#X obj 695 214 tgl 15 0 empty empty empty 17 7 0 10 -262144 -1 -1 1
1;
#X obj 627 174 r \$0-stepIsValid;
#X obj 869 320 XYgoto \$0;
#X obj 869 368 Zgoto \$0 Z;
#X obj 869 511 wait \$0 wait;
#X obj 869 415 wait \$0 __ 2;
#X obj 869 248 bng 15 250 50 0 empty empty empty 17 7 0 10 -262144
-1 -1;
#X obj 869 560 bng 15 250 50 0 empty empty empty 17 7 0 10 -262144
-1 -1;
#X obj 884 48 loadbang;
#X obj 884 98 v axisZ-1;
#X obj 869 271 Zgoto \$0 ZZ -1;
#X obj 869 464 Zgoto \$0 ZZ -1;
#X text 883 117 min height before move, f 11;
#X obj 978 98 v axisZ-2;
#X text 977 117 max height while moving, f 13;
#X msg 978 73 50;
#X msg 884 73 300;
#X obj 713 325 Zgoto \$0 ZZ -1.5;
#X obj 986 233 bng 15 250 50 0 empty empty empty 17 7 0 10 -262144
-1 -1;
#X obj 609 277 Zgoto \$0 ZZ -1;
#X obj 609 470 Zgoto \$0 ZZ -1;
#X text 880 152 (height is downward oriented);
#X obj 735 389 bng 15 250 50 0 empty empty empty 17 7 0 10 -262144
-1 -1;
#X obj 827 390 bng 15 250 50 0 empty empty empty 17 7 0 10 -262144
-1 -1;
#X obj 737 581 r axisArrivedZ;
#X obj 737 612 print axisArrivedZ;
#X connect 1 0 0 0;
#X connect 2 0 12 0;
#X connect 3 0 5 0;
#X connect 4 0 3 0;
#X connect 4 1 1 0;
#X connect 6 0 4 0;
#X connect 7 0 6 0;
#X connect 8 0 13 0;
#X connect 8 1 14 0;
#X connect 8 2 15 0;
#X connect 8 3 16 0;
#X connect 8 4 17 0;
#X connect 10 1 18 0;
#X connect 12 0 8 0;
#X connect 12 1 10 0;
#X connect 12 1 45 0;
#X connect 19 0 2 0;
#X connect 20 0 21 0;
#X connect 21 0 26 0;
#X connect 22 0 73 0;
#X connect 23 0 24 0;
#X connect 25 0 27 0;
#X connect 26 0 74 0;
#X connect 27 0 33 0;
#X connect 32 0 33 0;
#X connect 32 1 34 0;
#X connect 33 0 35 0;
#X connect 33 0 36 0;
#X connect 34 0 33 1;
#X connect 35 0 33 1;
#X connect 36 0 41 0;
#X connect 36 1 40 0;
#X connect 37 0 36 1;
#X connect 38 0 32 0;
#X connect 40 0 39 0;
#X connect 41 0 46 0;
#X connect 41 1 42 0;
#X connect 43 0 24 0;
#X connect 44 0 53 0;
#X connect 46 0 47 0;
#X connect 47 0 22 0;
#X connect 47 1 27 0;
#X connect 48 0 50 0;
#X connect 49 0 50 1;
#X connect 50 0 51 0;
#X connect 51 0 52 0;
#X connect 55 0 46 1;
#X connect 55 0 54 0;
#X connect 56 0 57 0;
#X connect 57 0 59 0;
#X connect 58 0 61 0;
#X connect 59 0 65 0;
#X connect 60 0 64 0;
#X connect 62 0 70 0;
#X connect 62 0 69 0;
#X connect 64 0 71 0;
#X connect 64 0 77 0;
#X connect 64 0 56 0;
#X connect 65 0 58 0;
#X connect 69 0 67 0;
#X connect 70 0 63 0;
#X connect 71 0 76 0;
#X connect 72 0 71 0;
#X connect 73 0 20 0;
#X connect 73 0 71 0;
#X connect 74 0 25 0;
