#N canvas 218 85 1095 661 12;
#X obj 71 126 text define Sequence;
#X msg 71 98 read -c Sequence.txt;
#X obj 42 259 text get Sequence;
#X obj 39 149 text size Sequence;
#X obj 39 74 t b b;
#X obj 39 174 s Sequence-size;
#X obj 39 53 bng 15 250 50 0 empty empty empty 17 7 0 10 -262144 -1
-1;
#X obj 39 27 loadbang;
#X obj 42 330 unpack f f f s f;
#X text 54 309 x y z action wait(s);
#X obj 221 334 list split 5;
#X text 217 312 comment;
#X obj 42 284 t a a, f 26;
#X obj 42 460 s \$0-X;
#X obj 69 434 s \$0-Y;
#X obj 96 408 s \$0-Z;
#X obj 123 385 s \$0-action;
#X obj 151 358 s \$0-wait;
#X obj 42 232 r \$0-readStep;
#X obj 609 326 XYgoto \$0;
#X obj 609 478 Zgoto \$0 Z;
#X obj 609 255 bng 15 250 50 0 empty empty empty 17 7 0 10 -262144
-1 -1;
#X obj 175 20 bng 15 250 50 0 empty empty empty 17 7 0 10 -262144 -1
-1;
#X obj 175 43 s \$0-reset;
#X obj 609 679 wait \$0 wait;
#X obj 556 266 bng 15 250 50 0 empty empty empty 17 7 0 10 -262144
-1 -1;
#X obj 177 222 hradio 15 1 0 12 \$0-readStep \$0-readStep readStep
0 -8 0 10 -262144 -1 -1 3;
#X obj 45 509 hsl 500 15 0 2000 0 0 empty axisRampPosX X -14 7 0 10
-262144 -1 -1 0 1;
#X obj 45 526 hsl 500 15 0 800 0 0 empty axisRampPosY Y -14 7 0 10
-262144 -1 -1 0 1;
#X obj 45 543 hsl 500 15 0 800 0 0 empty axisRampPosZ Z -14 7 0 10
-262144 -1 -1 0 1;
#X obj 609 47 t b b;
#X obj 609 72 i;
#X msg 655 46 0;
#X obj 641 73 + 1;
#X obj 609 97 moses, f 19;
#X obj 739 71 r Sequence-size;
#X obj 609 22 r SequencePlay;
#X obj 739 151 s SequenceFinished;
#X obj 739 123 b;
#X obj 609 122 t b f;
#X obj 641 145 s \$0-readStep;
#X obj 197 17 r SequenceReset;
#X obj 321 21 bng 15 250 50 0 empty empty empty 17 7 0 10 -262144 -1
-1;
#N canvas 371 211 450 300 stepIsValid 0;
#X obj 29 22 inlet;
#X obj 29 47 list length;
#X obj 29 72 >= 5;
#X obj 29 97 s \$0-stepIsValid;
#X connect 0 0 1 0;
#X connect 1 0 2 0;
#X connect 2 0 3 0;
#X restore 244 286 pd stepIsValid;
#X obj 609 200 f;
#X obj 609 225 sel 1 0;
#X obj 434 22 r SequencePlay;
#X obj 485 56 r SequenceFinished;
#X obj 437 108 timer;
#X obj 437 133 / 1000;
#X floatatom 437 158 5 0 0 0 - - -;
#X obj 321 42 s SequencePlay;
#X obj 695 214 tgl 15 0 empty empty empty 17 7 0 10 -262144 -1 -1 0
1;
#X obj 627 174 r \$0-stepIsValid;
#X obj 1079 336 XYgoto \$0;
#X obj 1079 384 Zgoto \$0 Z;
#X obj 1079 527 wait \$0 wait;
#X obj 1079 431 wait \$0 __ 2;
#X obj 1079 264 bng 15 250 50 0 empty empty empty 17 7 0 10 -262144
-1 -1;
#X obj 1079 576 bng 15 250 50 0 empty empty empty 17 7 0 10 -262144
-1 -1;
#X obj 884 48 loadbang;
#X obj 884 98 v axisZ-1;
#X obj 1079 287 Zgoto \$0 ZZ -1;
#X obj 1079 480 Zgoto \$0 ZZ -1;
#X text 883 117 min height before move, f 11;
#X obj 978 98 v axisZ-2;
#X text 977 117 max height while moving, f 13;
#X msg 978 73 50;
#X obj 923 341 Zgoto \$0 ZZ -1.5;
#X obj 1196 249 bng 15 250 50 0 empty empty empty 17 7 0 10 -262144
-1 -1;
#X obj 609 277 Zgoto \$0 ZZ -1;
#X obj 609 632 Zgoto \$0 ZZ -1;
#X text 880 152 (height is downward oriented);
#X obj 945 405 bng 15 250 50 0 empty empty empty 17 7 0 10 -262144
-1 -1;
#X obj 1037 406 bng 15 250 50 0 empty empty empty 17 7 0 10 -262144
-1 -1;
#X obj 737 581 r axisArrivedZ;
#X obj 737 612 print axisArrivedZ;
#X text 207 386 action: release/catch/none;
#X obj 609 577 wait \$0 __ 0.5;
#N canvas 72 85 360 276 Zcoil 0;
#X obj 39 209 s Zcoil;
#X obj 227 67 r \$0-reset;
#X msg 204 111 0;
#X obj 39 26 inlet start;
#X obj 221 27 inlet end;
#X obj 39 140 spigot;
#X obj 78 60 r \$0-action;
#X obj 78 85 sel release;
#X msg 78 110 1;
#X msg 111 110 0;
#X msg 39 165 1;
#X obj 169 185 tgl 15 0 empty empty empty 17 7 0 10 -262144 -1 -1 0
1;
#X connect 1 0 2 0;
#X connect 1 0 9 0;
#X connect 2 0 0 0;
#X connect 3 0 5 0;
#X connect 4 0 2 0;
#X connect 5 0 10 0;
#X connect 6 0 7 0;
#X connect 7 0 8 0;
#X connect 7 1 9 0;
#X connect 8 0 5 1;
#X connect 8 0 11 0;
#X connect 9 0 5 1;
#X connect 9 0 11 0;
#X connect 10 0 0 0;
#X restore 536 590 pd Zcoil;
#X obj 41 564 tgl 30 0 Zcoil Zcoil Zcoil -30 15 0 10 -262144 -1 -1
0 1;
#X obj 261 360 s SequenceComment;
#X floatatom 157 175 5 0 0 0 - - -;
#X obj 233 74 r SequenceSave;
#X msg 233 100 write -c Sequence.txt;
#X obj 497 128 r SequenceComment;
#X obj 497 153 t a b;
#X msg 499 198 start;
#X msg 548 197 finish;
#X obj 418 227 spigot;
#X obj 470 231 tgl 15 0 empty empty empty 17 7 0 10 -262144 -1 -1 0
1;
#X obj 526 294 i;
#X obj 418 258 list prepend ---;
#X obj 418 294 list prepend 0;
#X msg 526 231 0;
#X obj 434 53 t b b;
#X obj 485 82 t b b;
#X obj 418 331 print;
#X msg 884 73 150;
#X obj 161 441 - 10;
#X obj 161 467 s \$0-Z-10;
#X obj 609 376 Zgoto \$0 Z-10;
#X obj 609 527 wait \$0 __ 1;
#X obj 609 425 wait \$0 __ 1;
#X floatatom 303 439 5 0 0 0 - - -;
#X obj 805 358 tgl 50 0 empty empty LOOP 17 -10 0 10 -4034 -1 -1 0
1;
#X obj 802 415 r SequenceFinished;
#X obj 802 495 spigot;
#X obj 802 519 s SequencePlay;
#X obj 802 440 b;
#X obj 802 467 del 10;
#X obj 832 224 r SequenceFinished;
#X obj 793 199 r SequencePlay;
#X obj 869 250 r SequenceReset;
#X msg 793 224 1;
#X msg 832 249 0;
#X obj 793 304 s SequencePlaying;
#X obj 793 277 change;
#X connect 1 0 0 0;
#X connect 2 0 12 0;
#X connect 3 0 5 0;
#X connect 3 0 82 0;
#X connect 4 0 3 0;
#X connect 4 1 1 0;
#X connect 6 0 4 0;
#X connect 7 0 6 0;
#X connect 8 0 13 0;
#X connect 8 1 14 0;
#X connect 8 2 15 0;
#X connect 8 2 99 0;
#X connect 8 3 16 0;
#X connect 8 4 17 0;
#X connect 8 4 104 0;
#X connect 10 1 81 0;
#X connect 12 0 8 0;
#X connect 12 1 10 0;
#X connect 12 1 43 0;
#X connect 18 0 2 0;
#X connect 19 0 101 0;
#X connect 20 0 102 0;
#X connect 21 0 70 0;
#X connect 22 0 23 0;
#X connect 24 0 25 0;
#X connect 25 0 31 0;
#X connect 30 0 31 0;
#X connect 30 1 32 0;
#X connect 31 0 33 0;
#X connect 31 0 34 0;
#X connect 32 0 31 1;
#X connect 33 0 31 1;
#X connect 34 0 39 0;
#X connect 34 1 38 0;
#X connect 35 0 34 1;
#X connect 36 0 30 0;
#X connect 38 0 37 0;
#X connect 39 0 44 0;
#X connect 39 1 40 0;
#X connect 41 0 23 0;
#X connect 42 0 51 0;
#X connect 44 0 45 0;
#X connect 45 0 21 0;
#X connect 45 1 25 0;
#X connect 46 0 95 0;
#X connect 47 0 96 0;
#X connect 48 0 49 0;
#X connect 49 0 50 0;
#X connect 49 0 91 0;
#X connect 53 0 44 1;
#X connect 53 0 52 0;
#X connect 54 0 55 0;
#X connect 55 0 57 0;
#X connect 56 0 59 0;
#X connect 57 0 63 0;
#X connect 58 0 62 0;
#X connect 60 0 98 0;
#X connect 60 0 67 0;
#X connect 62 0 68 0;
#X connect 62 0 74 0;
#X connect 62 0 54 0;
#X connect 63 0 56 0;
#X connect 67 0 65 0;
#X connect 68 0 73 0;
#X connect 69 0 68 0;
#X connect 70 0 19 0;
#X connect 71 0 24 0;
#X connect 71 0 79 1;
#X connect 78 0 71 0;
#X connect 83 0 84 0;
#X connect 84 0 0 0;
#X connect 85 0 86 0;
#X connect 86 0 89 0;
#X connect 86 1 48 1;
#X connect 87 0 89 0;
#X connect 88 0 89 0;
#X connect 89 0 92 0;
#X connect 90 0 89 1;
#X connect 91 0 93 1;
#X connect 92 0 93 0;
#X connect 93 0 97 0;
#X connect 94 0 91 0;
#X connect 95 0 87 0;
#X connect 95 1 48 0;
#X connect 95 1 94 0;
#X connect 96 0 88 0;
#X connect 96 1 48 1;
#X connect 98 0 61 0;
#X connect 99 0 100 0;
#X connect 101 0 103 0;
#X connect 102 0 79 0;
#X connect 102 0 78 0;
#X connect 103 0 20 0;
#X connect 105 0 107 1;
#X connect 106 0 109 0;
#X connect 107 0 108 0;
#X connect 109 0 110 0;
#X connect 110 0 107 0;
#X connect 111 0 115 0;
#X connect 112 0 114 0;
#X connect 113 0 115 0;
#X connect 114 0 117 0;
#X connect 115 0 117 0;
#X connect 117 0 116 0;
