#N canvas 883 191 353 350 12;
#X obj 12 29 cnv 15 80 20 empty \$0-canvas empty 20 12 0 14 -166441
-260818 0;
#X obj 140 290 s \$0-canvas;
#X msg 140 254 color 15 22;
#X msg 231 254 color 1 22;
#X obj 12 55 inlet;
#X obj 44 296 outlet;
#X obj 12 80 t b b;
#X obj 44 130 * 1000;
#X obj 44 155 del;
#X msg 123 154 stop;
#X obj 123 129 r \$1-reset;
#X obj 69 78 r \$1-\$2;
#X obj 44 105 f \$3;
#X connect 2 0 1 0;
#X connect 3 0 1 0;
#X connect 4 0 6 0;
#X connect 6 1 12 0;
#X connect 7 0 8 0;
#X connect 7 0 2 0;
#X connect 8 0 3 0;
#X connect 8 0 5 0;
#X connect 9 0 8 0;
#X connect 9 0 3 0;
#X connect 10 0 9 0;
#X connect 11 0 12 1;
#X connect 12 0 7 0;
#X coords 0 -1 1 1 85 40 1 10 10;
