#N canvas 623 191 452 565 12;
#X obj 12 27 cnv 15 80 20 empty \$0-canvas empty 20 12 0 14 -166441
-260818 0;
#X obj 97 499 s \$0-canvas;
#X msg 97 463 color 15 22;
#X msg 188 463 color 1 22;
#X obj 12 55 inlet;
#X obj 44 105 f;
#X obj 12 413 sel 1;
#X obj 12 438 spigot;
#X obj 12 522 outlet;
#X obj 12 80 t b b;
#X msg 55 413 1;
#X msg 88 413 0;
#X obj 12 464 t b b;
#X obj 162 107 f;
#X obj 62 79 r \$1-X;
#X obj 180 81 r \$1-Y;
#X obj 12 357 &&;
#X obj 12 301 r axisArrivedX;
#X obj 45 358 t b f;
#X obj 45 329 r axisArrivedY;
#X obj 128 363 r \$1-reset;
#X obj 211 360 r axisGotoX;
#X obj 299 360 r axisGotoY;
#X obj 44 131 sel -1 -2;
#X obj 44 154 v axisX-1;
#X obj 74 213 s axisGotoX;
#X obj 162 132 sel -1 -2;
#X obj 162 155 v axisY-1;
#X obj 192 214 s axisGotoY;
#X obj 74 177 v axisX-2;
#X obj 192 178 v axisY-2;
#X obj 12 493 del 0;
#X connect 2 0 1 0;
#X connect 3 0 1 0;
#X connect 4 0 9 0;
#X connect 5 0 23 0;
#X connect 6 0 7 0;
#X connect 7 0 12 0;
#X connect 9 0 10 0;
#X connect 9 1 5 0;
#X connect 9 1 13 0;
#X connect 10 0 7 1;
#X connect 10 0 2 0;
#X connect 11 0 7 1;
#X connect 11 0 3 0;
#X connect 12 0 31 0;
#X connect 12 1 11 0;
#X connect 13 0 26 0;
#X connect 14 0 5 1;
#X connect 15 0 13 1;
#X connect 16 0 6 0;
#X connect 17 0 16 0;
#X connect 18 0 16 0;
#X connect 18 1 16 1;
#X connect 19 0 18 0;
#X connect 20 0 11 0;
#X connect 21 0 11 0;
#X connect 22 0 11 0;
#X connect 23 0 24 0;
#X connect 23 1 29 0;
#X connect 23 2 25 0;
#X connect 24 0 25 0;
#X connect 26 0 27 0;
#X connect 26 1 30 0;
#X connect 26 2 28 0;
#X connect 27 0 28 0;
#X connect 29 0 25 0;
#X connect 30 0 28 0;
#X connect 31 0 8 0;
#X coords 0 -1 1 1 85 40 1 10 10;
