#N canvas 141 249 450 489 12;
#X obj 12 29 cnv 15 80 20 empty \$0-canvas empty 20 12 0 14 -166441
-260818 0;
#X obj 97 394 s \$0-canvas;
#X msg 97 358 color 15 22;
#X msg 188 358 color 1 22;
#X obj 12 55 inlet;
#X obj 74 213 s axisGotoZ;
#X obj 12 283 r axisArrivedZ;
#X obj 12 308 sel 1;
#X obj 12 333 spigot;
#X obj 12 414 outlet;
#X obj 12 80 t b b;
#X msg 55 308 1;
#X msg 128 306 0;
#X obj 12 359 t b b;
#X obj 69 78 r \$1-\$2;
#X obj 44 105 f \$3;
#X obj 240 260 r axisGotoZ;
#X obj 128 258 r \$1-reset;
#X obj 44 154 v axisZ-1;
#X obj 74 177 v axisZ-2;
#X obj 138 77 inlet;
#X obj 44 131 sel -1 -2 -1.5;
#X obj 186 145 v axisZ-1;
#X obj 258 145 v axisZ-2;
#X obj 186 170 -, f 9;
#X obj 186 120 t b b b, f 21;
#X obj 330 145 random 1000;
#X obj 330 170 / 1000;
#X obj 186 195 *, f 21;
#X obj 186 220 +, f 10;
#X floatatom 277 219 5 0 0 0 - - -;
#X obj 216 82 bng 15 250 50 0 empty empty empty 17 7 0 10 -262144 -1
-1;
#X obj 12 386 del 0;
#X connect 2 0 1 0;
#X connect 3 0 1 0;
#X connect 4 0 10 0;
#X connect 6 0 7 0;
#X connect 7 0 8 0;
#X connect 8 0 13 0;
#X connect 10 0 11 0;
#X connect 10 1 15 0;
#X connect 11 0 8 1;
#X connect 11 0 2 0;
#X connect 12 0 8 1;
#X connect 12 0 3 0;
#X connect 13 0 32 0;
#X connect 13 1 12 0;
#X connect 14 0 15 1;
#X connect 15 0 21 0;
#X connect 16 0 12 0;
#X connect 17 0 12 0;
#X connect 18 0 5 0;
#X connect 19 0 5 0;
#X connect 20 0 15 1;
#X connect 21 0 18 0;
#X connect 21 1 19 0;
#X connect 21 2 25 0;
#X connect 21 3 5 0;
#X connect 22 0 24 0;
#X connect 23 0 24 1;
#X connect 23 0 29 1;
#X connect 24 0 28 0;
#X connect 25 0 22 0;
#X connect 25 1 23 0;
#X connect 25 2 26 0;
#X connect 26 0 27 0;
#X connect 27 0 28 1;
#X connect 28 0 29 0;
#X connect 29 0 5 0;
#X connect 29 0 30 0;
#X connect 31 0 25 0;
#X connect 32 0 9 0;
#X coords 0 -1 1 1 85 40 1 10 10;
