#N canvas 2131 581 511 323 10;
#X obj 107 218 oscformat current;
#X obj 107 241 s toRemoteDirect;
#X obj 107 194 list;
#X msg 235 158 z \$1;
#X msg 339 157 release \$1;
#X obj 339 136 tgl 15 0 empty empty empty 17 7 0 10 -262144 -1 -1 0
1;
#X obj 339 113 r Zcoil;
#X obj 235 133 r axisPosZ;
#X obj 107 47 r axisPosX;
#X obj 107 70 t b f;
#X obj 107 93 del 20;
#X obj 179 70 t b f;
#X obj 179 47 r axisPosY;
#X obj 107 116 f;
#X obj 107 139 pack f f, f 17;
#X msg 47 169 200 200;
#X msg 44 143 800 100;
#X msg 107 170 xy \$2 \$1;
#X connect 0 0 1 0;
#X connect 2 0 0 0;
#X connect 3 0 2 0;
#X connect 4 0 2 0;
#X connect 5 0 4 0;
#X connect 6 0 5 0;
#X connect 7 0 3 0;
#X connect 8 0 9 0;
#X connect 9 0 10 0;
#X connect 9 1 13 1;
#X connect 10 0 13 0;
#X connect 11 0 10 0;
#X connect 11 1 14 1;
#X connect 12 0 11 0;
#X connect 13 0 14 0;
#X connect 14 0 17 0;
#X connect 15 0 17 0;
#X connect 16 0 17 0;
#X connect 17 0 2 0;
