#N canvas 1093 118 623 750 10;
#X obj 102 209 oscformat current;
#X obj 102 232 s toRemoteDirect;
#X obj 102 185 list;
#X msg 239 109 z \$1;
#X msg 332 118 release \$1;
#X obj 332 97 tgl 15 0 empty empty empty 17 7 0 10 -262144 -1 -1 1
1;
#X obj 332 74 r Zcoil;
#X obj 239 84 r axisPosZ;
#X obj 102 22 r axisPosX;
#X obj 102 45 t b f;
#X obj 102 68 del 20;
#X obj 174 45 t b f;
#X obj 174 22 r axisPosY;
#X obj 102 91 f;
#X obj 102 114 pack f f, f 17;
#X msg 37 127 200 200;
#X msg 34 101 800 100;
#X msg 102 139 xy \$2 \$1;
#X obj 103 268 r axisConnectedX;
#X obj 103 292 tgl 15 0 empty empty empty 17 7 0 10 -262144 -1 -1 1
1;
#X msg 103 311 x_is_connected \$1;
#X obj 103 354 s toRemote;
#X obj 302 292 tgl 15 0 empty empty empty 17 7 0 10 -262144 -1 -1 0
1;
#X obj 302 354 s toRemote;
#X obj 481 287 tgl 15 0 empty empty empty 17 7 0 10 -262144 -1 -1 0
1;
#X obj 481 349 s toRemote;
#X obj 302 268 r axisConnectedY;
#X msg 302 311 y_is_connected \$1;
#X obj 481 263 r axisConnectedZ;
#X msg 481 306 z_is_connected \$1;
#X obj 105 409 tgl 15 0 empty empty empty 17 7 0 10 -262144 -1 -1 0
1;
#X obj 105 471 s toRemote;
#X obj 105 385 r axisHomedX;
#X msg 105 428 x_is_homed \$1;
#X obj 303 410 tgl 15 0 empty empty empty 17 7 0 10 -262144 -1 -1 0
1;
#X obj 303 472 s toRemote;
#X obj 482 407 tgl 15 0 empty empty empty 17 7 0 10 -262144 -1 -1 0
1;
#X obj 482 469 s toRemote;
#X obj 303 386 r axisHomedY;
#X msg 303 428 y_is_homed \$1;
#X obj 482 383 r axisHomedZ;
#X msg 482 426 z_is_homed \$1;
#X obj 32 490 &&;
#X obj 47 463 t b f;
#X obj 51 627 sel 1;
#X msg 51 673 0;
#X msg 51 696 zerox_window \$1;
#X obj 230 728 s toRemote;
#X obj 272 528 &&;
#X obj 282 499 t b f;
#X obj 411 519 &&;
#X obj 426 492 t b f;
#X obj 332 576 &&;
#X obj 347 549 t b f;
#X obj 259 632 sel 1;
#X msg 259 679 0;
#X msg 259 702 zeroyz_window \$1;
#X obj 259 655 del 500;
#X obj 51 650 del 500;
#X obj 32 534 s axisReadyX;
#X obj 332 622 s axisReadyYZ;
#X obj 32 511 change -1;
#X obj 332 599 change -1;
#X obj 332 141 refresh;
#X obj 239 134 refresh;
#X obj 102 162 refresh;
#X obj 103 332 refresh;
#X obj 302 332 refresh;
#X obj 481 327 refresh;
#X obj 482 447 refresh;
#X obj 303 450 refresh;
#X obj 105 449 refresh;
#X connect 0 0 1 0;
#X connect 2 0 0 0;
#X connect 3 0 64 0;
#X connect 4 0 63 0;
#X connect 5 0 4 0;
#X connect 6 0 5 0;
#X connect 7 0 3 0;
#X connect 8 0 9 0;
#X connect 9 0 10 0;
#X connect 9 1 13 1;
#X connect 10 0 13 0;
#X connect 11 0 10 0;
#X connect 11 1 14 1;
#X connect 12 0 11 0;
#X connect 13 0 14 0;
#X connect 14 0 17 0;
#X connect 15 0 17 0;
#X connect 16 0 17 0;
#X connect 17 0 65 0;
#X connect 18 0 19 0;
#X connect 19 0 20 0;
#X connect 19 0 42 0;
#X connect 20 0 66 0;
#X connect 22 0 27 0;
#X connect 22 0 48 0;
#X connect 24 0 29 0;
#X connect 24 0 50 0;
#X connect 26 0 22 0;
#X connect 27 0 67 0;
#X connect 28 0 24 0;
#X connect 29 0 68 0;
#X connect 30 0 33 0;
#X connect 30 0 43 0;
#X connect 32 0 30 0;
#X connect 33 0 71 0;
#X connect 34 0 39 0;
#X connect 34 0 49 0;
#X connect 36 0 41 0;
#X connect 36 0 51 0;
#X connect 38 0 34 0;
#X connect 39 0 70 0;
#X connect 40 0 36 0;
#X connect 41 0 69 0;
#X connect 42 0 61 0;
#X connect 43 0 42 0;
#X connect 43 1 42 1;
#X connect 44 0 58 0;
#X connect 45 0 46 0;
#X connect 46 0 47 0;
#X connect 48 0 52 0;
#X connect 49 0 48 0;
#X connect 49 1 48 1;
#X connect 50 0 53 0;
#X connect 51 0 50 0;
#X connect 51 1 50 1;
#X connect 52 0 62 0;
#X connect 53 0 52 0;
#X connect 53 1 52 1;
#X connect 54 0 57 0;
#X connect 55 0 56 0;
#X connect 56 0 47 0;
#X connect 57 0 55 0;
#X connect 58 0 45 0;
#X connect 61 0 59 0;
#X connect 62 0 60 0;
#X connect 63 0 2 0;
#X connect 64 0 2 0;
#X connect 65 0 2 0;
#X connect 66 0 21 0;
#X connect 67 0 23 0;
#X connect 68 0 25 0;
#X connect 69 0 37 0;
#X connect 70 0 35 0;
#X connect 71 0 31 0;
