#N canvas 395 145 443 220 10;
#X obj 125 16 movement_axis \$0 X x;
#X obj 125 39 movement_axis \$0 Y y;
#X obj 125 62 movement_axis \$0 Z z;
#N canvas 215 157 855 414 xyz_manual 0;
#X obj 107 241 s toRemoteDirect;
#X obj 107 194 list;
#X msg 235 158 z \$1;
#X msg 339 157 release \$1;
#X obj 339 136 tgl 15 0 empty empty empty 17 7 0 10 -262144 -1 -1 0
1;
#X obj 339 113 r Zcoil;
#X obj 107 70 t b f;
#X obj 107 93 del 20;
#X obj 179 95 t b f;
#X obj 107 116 f;
#X obj 107 139 pack f f, f 17;
#X msg 44 143 100 100;
#X msg 47 169 200 200;
#X msg 107 170 xy \$2 \$1;
#X obj 107 47 r \$0-setManualX;
#X obj 179 72 r \$0-setManualY;
#X obj 235 133 r \$0-setManualZ;
#X obj 107 218 oscformat manual;
#X obj 558 25 r fromRemote;
#X obj 558 71 route xy z release;
#X obj 558 173 unpack f f;
#X obj 615 218 s \$0-setManualX;
#X obj 558 243 s \$0-setManualY;
#X obj 593 143 s \$0-setManualZ;
#X obj 628 94 tgl 15 0 empty empty empty 17 7 0 10 -262144 -1 -1 0
1;
#X obj 138 345 s axisGotoX;
#X obj 138 317 r \$0-setManualX;
#X obj 244 318 r \$0-setManualY;
#X obj 244 347 s axisGotoY;
#X obj 346 318 r \$0-setManualZ;
#X obj 346 347 s axisGotoZ;
#X obj 628 115 s Zcoil;
#X obj 593 107 i;
#X obj 558 219 i;
#X obj 615 198 i;
#X obj 417 109 r \$0-release;
#X obj 417 155 oscformat /moveedit;
#X msg 417 132 list release \$1;
#X obj 558 48 route manual moveedit, f 44;
#X obj 688 93 s \$0-release;
#X obj 688 70 route release;
#X obj 726 125 s \$0-autosave;
#X connect 1 0 17 0;
#X connect 2 0 1 0;
#X connect 3 0 1 0;
#X connect 4 0 3 0;
#X connect 5 0 4 0;
#X connect 6 0 7 0;
#X connect 6 1 9 1;
#X connect 7 0 9 0;
#X connect 8 0 7 0;
#X connect 8 1 10 1;
#X connect 9 0 10 0;
#X connect 10 0 13 0;
#X connect 11 0 13 0;
#X connect 12 0 13 0;
#X connect 13 0 1 0;
#X connect 14 0 6 0;
#X connect 15 0 8 0;
#X connect 16 0 2 0;
#X connect 17 0 0 0;
#X connect 18 0 38 0;
#X connect 19 0 20 0;
#X connect 19 1 32 0;
#X connect 19 2 24 0;
#X connect 20 0 33 0;
#X connect 20 1 34 0;
#X connect 24 0 31 0;
#X connect 26 0 25 0;
#X connect 27 0 28 0;
#X connect 29 0 30 0;
#X connect 32 0 23 0;
#X connect 33 0 22 0;
#X connect 34 0 21 0;
#X connect 35 0 37 0;
#X connect 36 0 0 0;
#X connect 37 0 36 0;
#X connect 38 0 19 0;
#X connect 38 1 40 0;
#X connect 40 0 39 0;
#X connect 40 0 41 0;
#X restore 125 92 pd xyz_manual;
#N canvas 1118 293 556 547 navigation 1;
#X obj 38 12 r fromRemote;
#X obj 38 35 route movement_prev movement_next;
#X msg 38 58 -1;
#X msg 135 57 1;
#X obj 38 111 +;
#X obj 38 206 s \$0-currentmove;
#X obj 65 111 r \$0-currentmove;
#X obj 38 181 clip 0 0;
#X obj 83 158 - 1;
#X obj 38 260 text get Sequence;
#X obj 38 331 unpack f f f s f;
#X text 50 310 x y z action wait(s);
#X obj 217 335 list split 5;
#X text 213 313 comment;
#X obj 38 285 t a a, f 26;
#X obj 38 461 s \$0-X;
#X obj 61 430 s \$0-Y;
#X obj 84 406 s \$0-Z;
#X obj 107 382 s \$0-action;
#X obj 131 357 s \$0-wait;
#X text 203 387 action: release/catch/none;
#X obj 38 238 r \$0-currentmove;
#X obj 251 361 s \$0-comment;
#X obj 138 407 r \$0-action;
#X obj 138 430 sel release;
#X msg 138 453 1;
#X msg 168 453 0;
#X obj 138 481 s \$0-release;
#X msg 410 176 movement_count \$1;
#X obj 292 247 s toRemote;
#X floatatom 410 150 5 0 0 0 - - -;
#X floatatom 292 132 5 0 0 0 - - -;
#X obj 292 108 r \$0-currentmove;
#X msg 292 176 movement_num \$1;
#X obj 292 154 + 1;
#X obj 415 299 r Sequence-size;
#X obj 402 336 b;
#X obj 402 359 del 1;
#X obj 417 383 r \$0-currentmove;
#X obj 402 405 f;
#X obj 402 427 s \$0-currentmove;
#X obj 83 134 r Sequence-size;
#X obj 410 126 r Sequence-size;
#X obj 292 211 refresh;
#X obj 351 211 refresh;
#X obj 235 258 print;
#X connect 0 0 1 0;
#X connect 1 0 2 0;
#X connect 1 1 3 0;
#X connect 2 0 4 0;
#X connect 3 0 4 0;
#X connect 4 0 7 0;
#X connect 6 0 4 1;
#X connect 7 0 5 0;
#X connect 8 0 7 2;
#X connect 9 0 14 0;
#X connect 10 0 15 0;
#X connect 10 1 16 0;
#X connect 10 2 17 0;
#X connect 10 3 18 0;
#X connect 10 4 19 0;
#X connect 12 1 22 0;
#X connect 14 0 10 0;
#X connect 14 1 12 0;
#X connect 21 0 9 0;
#X connect 23 0 24 0;
#X connect 24 0 25 0;
#X connect 24 1 26 0;
#X connect 25 0 27 0;
#X connect 26 0 27 0;
#X connect 28 0 44 0;
#X connect 30 0 28 0;
#X connect 31 0 34 0;
#X connect 32 0 31 0;
#X connect 33 0 43 0;
#X connect 34 0 33 0;
#X connect 36 0 37 0;
#X connect 37 0 39 0;
#X connect 38 0 39 1;
#X connect 39 0 40 0;
#X connect 41 0 8 0;
#X connect 42 0 30 0;
#X connect 43 0 29 0;
#X connect 43 0 45 0;
#X connect 44 0 29 0;
#X restore 16 15 pd navigation;
#N canvas 269 695 544 359 comment 0;
#X obj 42 207 s toRemoteDirect;
#X obj 42 108 fudiformat -u;
#X obj 42 131 list tosymbol;
#X obj 42 83 list trim;
#X obj 42 60 r \$0-comment;
#X obj 42 178 oscformat moveedit_comment;
#X msg 42 154 list entry \$1;
#X obj 248 57 r fromRemote;
#X obj 248 80 route moveedit_comment;
#X obj 248 103 route entry;
#X obj 248 197 s \$0-comment;
#X obj 248 126 symbol;
#X obj 248 149 list fromsymbol;
#X obj 248 173 fudiparse;
#X obj 338 197 s \$0-autosave;
#X connect 1 0 2 0;
#X connect 2 0 6 0;
#X connect 3 0 1 0;
#X connect 4 0 3 0;
#X connect 5 0 0 0;
#X connect 6 0 5 0;
#X connect 7 0 8 0;
#X connect 8 0 9 0;
#X connect 9 0 11 0;
#X connect 11 0 12 0;
#X connect 12 0 13 0;
#X connect 13 0 10 0;
#X connect 13 0 14 0;
#X restore 126 119 pd comment;
#N canvas 718 337 570 580 save 0;
#X obj 78 194 pack f f f s f, f 49;
#X obj 93 147 r \$0-X;
#X obj 150 170 r \$0-Y;
#X obj 223 169 r \$0-Z;
#X obj 369 167 r \$0-wait;
#X obj 78 172 f;
#X obj 296 94 r \$0-release;
#X obj 296 117 sel 0 1, f 14;
#X msg 296 140 catch;
#X msg 336 140 release;
#X obj 296 163 symbol;
#X obj 51 106 bng 15 250 50 0 empty empty empty 17 7 0 10 -262144 -1
-1;
#X obj 78 217 list append, f 63;
#X obj 453 191 r \$0-comment;
#X obj 116 23 r fromRemote;
#X obj 116 46 route movement_save;
#X obj 78 278 text set Sequence;
#X obj 111 253 r \$0-currentmove;
#X obj 51 126 t b b;
#X obj 24 22 r \$0-autosave;
#X obj 24 51 bng 15 250 50 0 empty empty empty 17 7 0 10 -262144 -1
-1;
#X obj 24 71 t b b;
#X obj 80 382 s SequenceSave;
#X obj 51 302 s \$0-saveAndUpdateSeq;
#X obj 53 336 r \$0-saveAndUpdateSeq;
#X obj 53 359 t b b;
#X obj 80 430 text size Sequence;
#X obj 80 455 s Sequence-size;
#X obj 53 403 t b b;
#X obj 68 485 r \$0-currentmove;
#X obj 53 507 f;
#X obj 53 531 s \$0-currentmove;
#X connect 0 0 12 0;
#X connect 1 0 5 1;
#X connect 2 0 0 1;
#X connect 3 0 0 2;
#X connect 4 0 0 4;
#X connect 5 0 0 0;
#X connect 6 0 7 0;
#X connect 7 0 8 0;
#X connect 7 1 9 0;
#X connect 8 0 10 0;
#X connect 9 0 10 0;
#X connect 10 0 0 3;
#X connect 11 0 18 0;
#X connect 12 0 16 0;
#X connect 13 0 12 1;
#X connect 14 0 15 0;
#X connect 15 0 11 0;
#X connect 17 0 16 1;
#X connect 18 0 23 0;
#X connect 18 1 5 0;
#X connect 19 0 20 0;
#X connect 20 0 21 0;
#X connect 21 1 11 0;
#X connect 24 0 25 0;
#X connect 25 0 28 0;
#X connect 25 1 22 0;
#X connect 26 0 27 0;
#X connect 28 0 30 0;
#X connect 28 1 26 0;
#X connect 29 0 30 1;
#X connect 30 0 31 0;
#X restore 17 49 pd save;
#N canvas 464 721 544 359 wait 0;
#X obj 32 110 s toRemoteDirect;
#X obj 172 28 r fromRemote;
#X obj 32 33 r \$0-wait;
#X obj 32 81 oscformat moveedit;
#X msg 32 57 list wait \$1;
#X obj 172 51 route moveedit;
#X obj 172 74 route wait;
#X floatatom 208 129 5 0 0 0 - - -;
#X obj 172 98 route float;
#X obj 172 153 s \$0-wait;
#X floatatom 110 26 5 0 0 0 - - -;
#X obj 130 180 s \$0-autosave;
#X connect 1 0 5 0;
#X connect 2 0 4 0;
#X connect 3 0 0 0;
#X connect 4 0 3 0;
#X connect 5 0 6 0;
#X connect 6 0 8 0;
#X connect 8 0 7 0;
#X connect 8 0 9 0;
#X connect 8 0 11 0;
#X connect 10 0 4 0;
#X restore 126 141 pd wait;
#N canvas 378 199 582 337 insert/delete 0;
#X obj 65 181 text insert Sequence;
#X obj 38 12 r fromRemote;
#X obj 38 35 route movement_insertbefore movement_insertafter movement_delete
, f 84;
#X msg 411 85 movement_delete_dialog 0;
#X obj 411 108 s toRemote;
#X obj 80 84 r \$0-currentmove;
#X obj 65 106 f;
#X obj 232 91 f, f 6;
#X obj 65 130 text get Sequence;
#X obj 123 158 r \$0-currentmove;
#X obj 232 191 text insert Sequence;
#X obj 232 113 text get Sequence;
#X obj 290 141 r \$0-currentmove;
#X obj 265 67 r \$0-currentmove;
#X obj 290 166 + 1;
#X obj 406 149 r \$0-currentmove;
#X obj 391 194 text delete Sequence;
#X obj 391 170 f;
#X obj 372 59 t b b b;
#X obj 38 60 t b b;
#X obj 205 68 t b b;
#X obj 160 268 b;
#X obj 160 294 s \$0-saveAndUpdateSeq;
#X connect 1 0 2 0;
#X connect 2 0 19 0;
#X connect 2 1 20 0;
#X connect 2 2 18 0;
#X connect 3 0 4 0;
#X connect 5 0 6 1;
#X connect 6 0 8 0;
#X connect 7 0 11 0;
#X connect 8 0 0 0;
#X connect 9 0 0 1;
#X connect 11 0 10 0;
#X connect 12 0 14 0;
#X connect 13 0 7 1;
#X connect 14 0 10 1;
#X connect 15 0 17 1;
#X connect 17 0 16 0;
#X connect 18 0 21 0;
#X connect 18 1 17 0;
#X connect 18 2 3 0;
#X connect 19 0 21 0;
#X connect 19 1 6 0;
#X connect 20 0 21 0;
#X connect 20 1 7 0;
#X connect 21 0 22 0;
#X restore 17 72 pd insert/delete;
#X obj 285 18 file_osc Sequence \$0;
