#N canvas 395 118 970 493 10;
#X obj 59 170 r axisReadyX;
#X obj 188 170 r axisReadyYZ;
#X msg 59 242 zerox_window \$1;
#X obj 59 275 s toRemote;
#X msg 188 242 zeroyz_window \$1;
#X msg 117 218 1;
#X msg 251 216 1;
#X msg 216 215 0;
#X msg 87 217 0;
#X obj 59 193 == 0;
#X obj 188 192 == 0;
#X obj 312 222 &&;
#X obj 321 199 t b f;
#X obj 312 245 s axisReadyALL;
#X obj 150 22 r fromRemote;
#X obj 195 67 r axisReadyALL;
#X obj 195 94 == 0;
#X obj 150 143 b;
#X floatatom 231 120 5 0 0 0 - - -;
#X obj 117 113 bng 15 250 50 0 empty empty empty 17 7 0 10 -262144
-1 -1;
#X floatatom 170 274 5 0 0 0 - - -;
#X obj 188 216 f 1;
#X obj 59 218 f 1;
#X obj 327 126 r axisConnectedY;
#X obj 327 149 sel 1;
#X obj 150 45 route start_button;
#X obj 506 32 r fromRemote;
#X msg 506 107 -250;
#X obj 601 351 s axisDoHomeY;
#X obj 506 157 s axisDoHomeX;
#X msg 542 107 0;
#X obj 506 55 route run_homing_x abort_homing_x run_homing_yz abort_homing_yz
, f 63;
#X obj 693 88 bng 15 250 50 0 empty empty empty 17 7 0 10 -262144 -1
-1;
#X obj 820 234 s axisDoHomeZ;
#X obj 601 211 r axisHomedZ;
#X obj 520 390 r axisHomedZ;
#X obj 505 412 f;
#X obj 505 435 sel 0 1, f 12;
#X obj 858 268 r axisHomedY;
#X obj 870 323 bng 15 250 50 0 empty empty empty 17 7 0 10 -262144
-1 -1;
#X floatatom 858 291 5 0 0 0 - - -;
#X obj 826 342 sel 1;
#X obj 826 371 bng 15 250 50 0 empty empty empty 17 7 0 10 -262144
-1 -1;
#X obj 601 264 sel 1;
#X obj 601 287 spigot;
#X msg 693 187 1;
#X obj 674 260 r axisDoHomeZ;
#X msg 674 283 0;
#X msg 820 212 -250;
#X obj 150 120 spigot 1;
#X obj 571 264 bng 15 250 50 0 empty empty empty 17 7 0 10 -262144
-1 -1;
#X msg 796 149 0;
#X obj 283 278 tgl 15 0 empty empty empty 17 7 0 10 -262144 -1 -1 1
1;
#X obj 26 264 tgl 15 0 empty empty empty 17 7 0 10 -262144 -1 -1 1
1;
#X obj 141 282 tgl 15 0 empty empty empty 17 7 0 10 -262144 -1 -1 1
1;
#X obj 18 107 loadbang;
#X obj 18 130 del 3000;
#X obj 139 347 r axisReadyX;
#X obj 139 370 == 0;
#X obj 139 393 metro 2000;
#X obj 282 334 r fromRemote;
#X obj 282 357 route zerox_window;
#X obj 282 380 sel 0;
#X obj 139 416 spigot 1;
#X msg 200 417 0;
#X obj 67 386 bng 15 250 50 0 empty empty empty 17 7 0 10 -262144 -1
-1;
#X floatatom 542 415 5 0 0 0 - - -;
#X msg 509 226 666;
#X floatatom 509 249 5 0 0 0 - - -;
#X msg 758 283 -1;
#X obj 601 237 f;
#X msg 699 321 -1;
#X msg 856 212 250;
#X obj 674 156 t b b b;
#X msg 642 314 0;
#X obj 554 294 bng 15 250 50 0 empty empty empty 17 7 0 10 -262144
-1 -1;
#X msg 601 315 -350;
#X obj 497 357 s axisGotoZ;
#X msg 497 330 50;
#X connect 0 0 9 0;
#X connect 0 0 11 0;
#X connect 0 0 53 0;
#X connect 1 0 10 0;
#X connect 1 0 12 0;
#X connect 1 0 54 0;
#X connect 2 0 3 0;
#X connect 4 0 3 0;
#X connect 5 0 2 0;
#X connect 6 0 4 0;
#X connect 7 0 4 0;
#X connect 8 0 2 0;
#X connect 9 0 22 0;
#X connect 10 0 21 0;
#X connect 11 0 13 0;
#X connect 11 0 52 0;
#X connect 12 0 11 0;
#X connect 12 1 11 1;
#X connect 14 0 25 0;
#X connect 15 0 16 0;
#X connect 16 0 18 0;
#X connect 16 0 49 1;
#X connect 17 0 19 0;
#X connect 17 0 21 0;
#X connect 17 0 22 0;
#X connect 21 0 4 0;
#X connect 21 0 20 0;
#X connect 22 0 2 0;
#X connect 23 0 24 0;
#X connect 24 0 6 0;
#X connect 25 0 49 0;
#X connect 26 0 31 0;
#X connect 27 0 29 0;
#X connect 30 0 29 0;
#X connect 30 0 67 0;
#X connect 31 0 27 0;
#X connect 31 1 30 0;
#X connect 31 2 32 0;
#X connect 31 3 51 0;
#X connect 32 0 73 0;
#X connect 34 0 70 0;
#X connect 35 0 36 1;
#X connect 36 0 37 0;
#X connect 36 0 66 0;
#X connect 38 0 40 0;
#X connect 38 0 41 0;
#X connect 40 0 39 0;
#X connect 41 0 42 0;
#X connect 41 0 71 0;
#X connect 43 0 44 0;
#X connect 43 0 69 0;
#X connect 43 0 75 0;
#X connect 43 0 78 0;
#X connect 44 0 76 0;
#X connect 44 0 74 0;
#X connect 45 0 44 1;
#X connect 46 0 47 0;
#X connect 47 0 44 1;
#X connect 48 0 33 0;
#X connect 49 0 17 0;
#X connect 50 0 44 0;
#X connect 51 0 33 0;
#X connect 51 0 28 0;
#X connect 55 0 56 0;
#X connect 56 0 9 0;
#X connect 56 0 58 0;
#X connect 57 0 58 0;
#X connect 58 0 59 0;
#X connect 59 0 63 0;
#X connect 60 0 61 0;
#X connect 61 0 62 0;
#X connect 62 0 64 0;
#X connect 63 0 9 0;
#X connect 64 0 63 1;
#X connect 65 0 58 0;
#X connect 67 0 68 0;
#X connect 70 0 43 0;
#X connect 71 0 28 0;
#X connect 72 0 33 0;
#X connect 73 1 45 0;
#X connect 73 2 48 0;
#X connect 74 0 44 1;
#X connect 76 0 28 0;
#X connect 78 0 77 0;
