#N canvas 2090 906 513 342 10;
#X declare -path ..;
#X obj 47 15 r fromRemote;
#X obj 19 171 bng 15 250 50 0 empty empty empty 17 7 0 10 -262144 -1
-1;
#X floatatom 47 136 5 0 0 0 - - -;
#X obj 47 40 route moveedit_\$2;
#X obj 164 154 r \$1-\$2;
#X floatatom 264 208 5 0 0 0 - - -;
#X obj 264 259 oscformat moveedit_\$2;
#X obj 264 284 s toRemoteDirect;
#X msg 264 232 list current \$1;
#X obj 47 100 route float;
#X obj 149 96 bng 15 250 50 0 empty empty empty 17 7 0 10 -262144 -1
-1;
#X obj 47 70 list split 1;
#X obj 149 176 f;
#X obj 149 207 s \$1-setManual\$2;
#X obj 47 158 +;
#X obj 220 16 declare -path ..;
#X obj 47 181 clip\$2;
#X obj 86 131 r \$1-setManual\$2;
#X obj 47 206 s \$1-setManual\$2;
#X obj 149 70 route gotoMove setMove;
#X obj 231 92 r \$1-setManual\$2;
#X obj 213 140 s \$1-\$2;
#X obj 213 115 f;
#X obj 213 92 bng 15 250 50 0 empty empty empty 17 7 0 10 -262144 -1
-1;
#X text 322 17 for clipX clipY clipZ ...;
#X connect 0 0 3 0;
#X connect 2 0 1 0;
#X connect 2 0 14 0;
#X connect 3 0 11 0;
#X connect 3 0 19 0;
#X connect 4 0 5 0;
#X connect 4 0 12 1;
#X connect 5 0 8 0;
#X connect 6 0 7 0;
#X connect 8 0 6 0;
#X connect 9 0 2 0;
#X connect 10 0 12 0;
#X connect 11 0 9 0;
#X connect 12 0 13 0;
#X connect 14 0 16 0;
#X connect 16 0 18 0;
#X connect 17 0 14 1;
#X connect 19 0 10 0;
#X connect 19 1 23 0;
#X connect 20 0 22 1;
#X connect 22 0 21 0;
#X connect 23 0 22 0;
