#N canvas 2098 749 896 364 10;
#X obj 108 223 s toRemote;
#X obj 121 31 r fromRemote;
#X obj 121 54 route start_button emergency_stop_button;
#X obj 397 108 r SequenceComment;
#X obj 108 197 list prepend sequence_text;
#X obj 72 118 s SequencePlay;
#X obj 641 71 s axisArrivedZ;
#X obj 626 96 s axisArrivedX;
#X obj 615 120 s axisArrivedY;
#X msg 617 41 1;
#X obj 194 225 print;
#X msg 156 291 sequence_text un deux troix;
#X obj 397 282 s toRemoteDirect;
#X obj 651 167 list prepend sequence_text;
#X obj 397 228 oscformat sequence;
#X obj 397 158 fudiformat -u;
#X obj 397 181 list tosymbol;
#X msg 397 204 list comment \$1;
#X msg 324 142 a b d;
#X obj 397 133 list trim;
#X connect 1 0 2 0;
#X connect 2 0 5 0;
#X connect 3 0 19 0;
#X connect 4 0 0 0;
#X connect 4 0 10 0;
#X connect 9 0 7 0;
#X connect 9 0 8 0;
#X connect 9 0 6 0;
#X connect 11 0 0 0;
#X connect 14 0 12 0;
#X connect 15 0 16 0;
#X connect 16 0 17 0;
#X connect 17 0 14 0;
#X connect 19 0 15 0;
