#N canvas 936 344 826 459 10;
#X obj 14 10 r fromRemote;
#X obj 14 33 route start_button emergency_stop_button, f 66;
#X obj 435 31 r SequenceComment;
#X obj 14 195 s SequencePlay;
#X obj 391 289 s axisArrivedZ;
#X obj 376 314 s axisArrivedX;
#X obj 365 338 s axisArrivedY;
#X msg 367 259 1;
#X obj 435 205 s toRemoteDirect;
#X obj 435 151 oscformat sequence;
#X obj 435 81 fudiformat -u;
#X obj 435 104 list tosymbol;
#X msg 435 127 list comment \$1;
#X obj 435 56 list trim;
#X obj 47 56 r axisReadyALL;
#X obj 14 80 spigot;
#X msg 212 76 0;
#X obj 246 78 s SequenceReset;
#X obj 231 105 s axisStopZ;
#X obj 222 125 s axisStopY;
#X obj 212 147 s axisStopX;
#X obj 435 178 refresh;
#X obj 107 240 s toRemoteDirect;
#X obj 107 216 oscformat NOTIFY;
#X obj 41 102 r SequencePlaying;
#X obj 14 103 b;
#X obj 14 126 f;
#X obj 14 149 sel 0 1;
#X msg 107 192 list Sequence\ is\ already\ playing!;
#X obj 562 29 r SequencePlaying;
#X obj 562 414 s toRemoteDirect;
#X obj 562 390 oscformat sequence;
#X obj 562 74 t f f f;
#X obj 601 98 sel 1;
#X obj 581 150 metro 1000;
#X obj 581 173 i;
#X obj 581 196 + 1;
#X msg 601 121 0;
#X obj 581 219 t f f, f 19;
#X obj 581 242 div 60;
#X obj 692 242 mod 60;
#X obj 581 289 pack s s, f 19;
#X msg 581 313 list time \$1:\$2;
#X obj 562 52 tgl 15 0 empty empty empty 17 7 0 10 -262144 -1 -1 0
1;
#X obj 581 266 makefilename %02d;
#X obj 692 266 makefilename %02d;
#X obj 562 336 sel 0;
#X msg 562 361 list time not\ playing;
#X connect 0 0 1 0;
#X connect 1 0 15 0;
#X connect 1 1 16 0;
#X connect 1 1 17 0;
#X connect 2 0 13 0;
#X connect 7 0 5 0;
#X connect 7 0 6 0;
#X connect 7 0 4 0;
#X connect 9 0 21 0;
#X connect 10 0 11 0;
#X connect 11 0 12 0;
#X connect 12 0 9 0;
#X connect 13 0 10 0;
#X connect 14 0 15 1;
#X connect 15 0 25 0;
#X connect 16 0 18 0;
#X connect 16 0 19 0;
#X connect 16 0 20 0;
#X connect 21 0 8 0;
#X connect 23 0 22 0;
#X connect 24 0 26 1;
#X connect 25 0 26 0;
#X connect 26 0 27 0;
#X connect 27 0 3 0;
#X connect 27 1 28 0;
#X connect 28 0 23 0;
#X connect 29 0 43 0;
#X connect 31 0 30 0;
#X connect 32 0 46 0;
#X connect 32 1 34 0;
#X connect 32 2 33 0;
#X connect 33 0 37 0;
#X connect 34 0 35 0;
#X connect 35 0 36 0;
#X connect 36 0 35 1;
#X connect 36 0 38 0;
#X connect 37 0 35 1;
#X connect 38 0 39 0;
#X connect 38 1 40 0;
#X connect 39 0 44 0;
#X connect 40 0 45 0;
#X connect 41 0 42 0;
#X connect 42 0 31 0;
#X connect 43 0 32 0;
#X connect 44 0 41 0;
#X connect 45 0 41 1;
#X connect 46 0 47 0;
#X connect 47 0 31 0;
