#N canvas 379 411 896 364 10;
#X obj 108 223 s toRemote;
#X obj 121 31 r fromRemote;
#X obj 121 54 route start_button emergency_stop_button;
#X obj 397 108 r SequenceComment;
#X obj 108 197 list prepend sequence_text;
#X obj 121 127 s SequencePlay;
#X obj 641 71 s axisArrivedZ;
#X obj 626 96 s axisArrivedX;
#X obj 615 120 s axisArrivedY;
#X msg 617 41 1;
#X obj 194 225 print;
#X msg 156 291 sequence_text un deux troix;
#X obj 397 282 s toRemoteDirect;
#X obj 651 167 list prepend sequence_text;
#X obj 397 228 oscformat sequence;
#X obj 397 158 fudiformat -u;
#X obj 397 181 list tosymbol;
#X msg 397 204 list comment \$1;
#X obj 397 133 list trim;
#X obj 154 77 r axisReadyALL;
#X obj 121 101 spigot;
#X msg 253 84 0;
#X obj 287 86 s SequenceReset;
#X obj 272 113 s axisStopZ;
#X obj 263 133 s axisStopY;
#X obj 253 155 s axisStopX;
#X connect 1 0 2 0;
#X connect 2 0 20 0;
#X connect 2 1 21 0;
#X connect 2 1 22 0;
#X connect 3 0 18 0;
#X connect 4 0 0 0;
#X connect 4 0 10 0;
#X connect 9 0 7 0;
#X connect 9 0 8 0;
#X connect 9 0 6 0;
#X connect 11 0 0 0;
#X connect 14 0 12 0;
#X connect 15 0 16 0;
#X connect 16 0 17 0;
#X connect 17 0 14 0;
#X connect 18 0 15 0;
#X connect 19 0 20 1;
#X connect 20 0 5 0;
#X connect 21 0 23 0;
#X connect 21 0 24 0;
#X connect 21 0 25 0;
