#N canvas 404 242 450 300 12;
#X obj 90 30 inlet;
#X obj 90 55 t b a;
#X obj 90 80 list, f 5;
#X obj 90 105 list trim;
#X obj 90 130 outlet;
#X obj 64 8 r OSCrefresh;
#X connect 0 0 1 0;
#X connect 1 0 2 0;
#X connect 1 1 2 1;
#X connect 2 0 3 0;
#X connect 3 0 4 0;
#X connect 5 0 2 0;
