#N canvas 489 212 593 447 10;
#X obj 33 30 netreceive -u -b 18080;
#X obj 33 50 oscparse;
#X obj 32 277 netsend -u -b;
#X obj 67 220 loadbang;
#X msg 67 241 connect localhost 8080;
#X obj 32 305 tgl 15 0 empty empty empty 17 7 0 10 -262144 -1 -1 1
1;
#X obj 32 179 list prepend send;
#X obj 32 200 list trim;
#X obj 32 158 oscformat SET;
#X obj 32 136 list;
#X obj 33 70 list trim;
#X obj 220 97 spigot;
#X obj 220 120 print;
#X obj 271 103 tgl 15 0 empty empty empty 17 7 0 10 -262144 -1 -1 0
1;
#X msg 352 329 0;
#X msg 383 328 1;
#X msg 357 352 zerox_window \$1;
#X obj 122 155 r toRemoteDirect;
#X obj 33 91 s fromRemote;
#X obj 32 114 r toRemote;
#X obj 220 74 r fromRemote;
#X obj 354 385 s toRemote;
#X msg 213 238 disconnect;
#X obj 372 187 display_current;
#X obj 372 158 play_sequence;
#X obj 374 236 remote_server;
#X obj 460 157 edit_sequence;
#X obj 375 263 homing;
#X obj 157 353 s OSCrefresh;
#X obj 110 357 bng 15 250 50 0 empty empty empty 17 7 0 10 -262144
-1 -1;
#X obj 157 331 metro 2000;
#X obj 157 284 loadbang;
#X obj 157 310 tgl 15 0 empty empty empty 17 7 0 10 -262144 -1 -1 0
1;
#X connect 0 0 1 0;
#X connect 1 0 10 0;
#X connect 2 0 5 0;
#X connect 3 0 4 0;
#X connect 4 0 2 0;
#X connect 6 0 7 0;
#X connect 7 0 2 0;
#X connect 8 0 6 0;
#X connect 9 0 8 0;
#X connect 10 0 18 0;
#X connect 11 0 12 0;
#X connect 13 0 11 1;
#X connect 14 0 16 0;
#X connect 15 0 16 0;
#X connect 16 0 21 0;
#X connect 17 0 6 0;
#X connect 19 0 9 0;
#X connect 20 0 11 0;
#X connect 22 0 2 0;
#X connect 29 0 28 0;
#X connect 30 0 28 0;
#X connect 31 0 32 0;
#X connect 32 0 30 0;
