#N canvas 2049 554 819 623 10;
#X declare -path Fraise;
#X obj 33 30 netreceive -u -b 18080;
#X obj 33 50 oscparse;
#X obj 32 277 netsend -u -b;
#X obj 67 220 loadbang;
#X msg 67 241 connect localhost 8080;
#X obj 32 305 tgl 15 0 empty empty empty 17 7 0 10 -262144 -1 -1 1
1;
#X obj 32 179 list prepend send;
#X obj 32 200 list trim;
#X obj 32 158 oscformat SET;
#X obj 32 136 list;
#X obj 33 70 list trim;
#N canvas 72 94 1039 749 olds 0;
#X obj 404 76 r cigaleBatt;
#X obj 404 97 unpack f f, f 12;
#X obj 404 181 pack f f, f 12;
#X obj 473 118 i;
#X obj 428 134 / 100;
#X obj 199 341 s toTeleco;
#X obj 404 228 s toTeleco;
#X obj 515 315 r fromTeleco;
#X obj 515 365 bng 15 250 50 0 empty empty empty 17 7 0 10 -262144
-1 -1;
#X obj 622 373 bng 15 250 50 0 empty empty empty 17 7 0 10 -262144
-1 -1;
#X obj 199 320 list trim;
#X obj 199 299 list prepend SceneTitle;
#X obj 651 372 bng 15 250 50 0 empty empty empty 17 7 0 10 -262144
-1 -1;
#X obj 605 242 s toTeleco;
#X obj 608 89 hsl 128 15 10 13.6 0 0 empty empty empty -2 -8 0 10 -262144
-1 -1 0 1;
#X obj 605 132 * 10;
#X obj 605 153 i;
#X obj 605 174 / 10;
#X obj 199 188 r SceneTitle;
#X msg 225 272 "Introduction Avant";
#X obj 30 320 oscformat nexttitle;
#X msg 59 293 Essaim Solo Un;
#X obj 30 294 l2s;
#X obj 199 275 l2s;
#X obj 30 190 r GotoTitle;
#X obj 539 368 s zAngle;
#X obj 625 430 s TelecoCommand;
#X msg 625 401 Prev;
#X msg 667 400 Next;
#X msg 712 402 Confirm;
#N canvas 121 521 796 480 test_param_radio 0;
#X obj 25 194 l2s;
#X obj 25 245 s toTelecoDirect;
#X obj 254 246 hradio 15 1 0 8 empty empty empty 0 -8 0 10 -262144
-1 -1 0;
#X obj 382 243 hradio 15 1 0 8 empty empty empty 0 -8 0 10 -262144
-1 -1 0;
#X msg 252 267 param_radio/val \$1;
#X msg 382 290 param_radio/n \$1;
#X msg 279 213 param_radio_b_1/text Hello;
#X msg 27 168 Hey;
#X msg 58 168 Hello;
#X obj 304 329 s toTeleco;
#X obj 139 114 oscformat param_radio/vis;
#X obj 141 88 tgl 15 0 empty empty empty 17 7 0 10 -262144 -1 -1 0
1;
#X obj 382 266 + 1;
#X obj 24 220 oscformat param_radio_b5/text;
#X obj 45 362 l2s;
#X obj 45 413 s toTelecoDirect;
#X msg 47 336 Hey;
#X msg 78 336 Hello;
#X obj 248 353 hradio 15 1 0 8 empty empty empty 0 -8 0 10 -262144
-1 -1 0;
#X obj 251 421 s toTeleco;
#X msg 245 398 radio1/n \$1;
#X obj 246 375 + 1;
#X obj 44 388 oscformat radio1_b0/text;
#X obj 396 350 hradio 15 1 0 8 empty empty empty 0 -8 0 10 -262144
-1 -1 0;
#X obj 394 372 + 1;
#X msg 393 395 radio2/n \$1;
#X obj 416 102 tgl 15 0 empty empty empty 17 7 0 10 -262144 -1 -1 0
1;
#X obj 314 129 oscformat radio1/vis;
#X obj 551 101 tgl 15 0 empty empty empty 17 7 0 10 -262144 -1 -1 0
1;
#X obj 449 128 oscformat radio2/vis;
#X floatatom 572 346 5 0 0 0 - - -;
#X obj 572 284 r fromTeleco;
#X obj 572 306 route param_radio;
#X obj 525 310 print;
#X obj 572 326 route t;
#X floatatom 697 298 5 0 0 0 - - -;
#X obj 639 334 makefilename %d;
#X connect 0 0 13 0;
#X connect 2 0 4 0;
#X connect 3 0 12 0;
#X connect 4 0 9 0;
#X connect 5 0 9 0;
#X connect 7 0 0 0;
#X connect 8 0 0 0;
#X connect 10 0 1 0;
#X connect 11 0 10 0;
#X connect 12 0 5 0;
#X connect 13 0 1 0;
#X connect 14 0 22 0;
#X connect 16 0 14 0;
#X connect 17 0 14 0;
#X connect 18 0 21 0;
#X connect 20 0 19 0;
#X connect 21 0 20 0;
#X connect 22 0 15 0;
#X connect 23 0 24 0;
#X connect 24 0 25 0;
#X connect 25 0 19 0;
#X connect 26 0 27 0;
#X connect 27 0 1 0;
#X connect 28 0 29 0;
#X connect 29 0 1 0;
#X connect 31 0 32 0;
#X connect 32 0 34 0;
#X connect 34 0 30 0;
#X connect 35 0 36 0;
#X connect 36 0 34 1;
#X restore 776 130 pd test_param_radio;
#X obj 404 289 hsl 128 15 0 1 0 0 empty empty empty -2 -8 0 10 -262144
-1 -1 0 1;
#X msg 401 316 fader_master \$1;
#N canvas 1 82 941 436 test_faders 0;
#X obj 95 233 s toTeleco;
#X obj 95 188 list prepend SceneText;
#X obj 95 209 list trim;
#X msg 140 96 Bon;
#X obj 95 99 l2s;
#X obj 95 39 r SceneText;
#X obj 95 119 list fromsymbol;
#X obj 95 167 list tosymbol;
#X msg 225 38 97 10 99;
#X msg 135 64 Alors\\\, c'est un texte assez longue pour voir comment
l'objet texte de O-S-C se comporte dans ce cas.;
#X msg 174 39 a#b;
#N canvas 1 81 450 300 replace#bynewline 0;
#X obj 75 18 inlet;
#X obj 75 226 outlet;
#X obj 94 115 sel 35;
#X msg 94 136 10;
#X obj 94 66 list split 1;
#X obj 128 85 t a;
#X obj 75 42 t b a b;
#X obj 94 178 t a;
#X msg 149 135 list;
#X obj 75 203 list;
#X obj 94 157 list append;
#X connect 0 0 6 0;
#X connect 2 0 3 0;
#X connect 2 1 10 0;
#X connect 3 0 10 0;
#X connect 4 0 2 0;
#X connect 4 1 5 0;
#X connect 5 0 4 0;
#X connect 6 0 9 0;
#X connect 6 1 4 0;
#X connect 6 2 8 0;
#X connect 7 0 9 1;
#X connect 7 0 10 1;
#X connect 8 0 7 0;
#X connect 9 0 1 0;
#X connect 10 0 7 0;
#X restore 95 141 pd replace#bynewline;
#X obj 501 218 hsl 128 15 0 1 0 0 empty empty empty -2 -8 0 10 -262144
-1 -1 0 1;
#X obj 578 242 hsl 128 15 0 1 0 0 empty empty empty -2 -8 0 10 -262144
-1 -1 0 1;
#X msg 575 268 fader_1/meter \$1;
#X obj 740 310 tgl 15 0 empty empty empty 17 7 0 10 -262144 -1 -1 0
1;
#X obj 599 317 s toTeleco;
#X obj 436 146 oscformat fader_1/text;
#X obj 204 322 s 2TelecoControls;
#X obj 740 352 s toTelecoDirect;
#X msg 498 244 fader1 \$1;
#X obj 740 331 oscformat fader1/vis;
#X obj 334 219 hsl 128 15 0 1 0 0 empty empty empty -2 -8 0 10 -262144
-1 -1 0 1;
#X msg 331 246 fader_master \$1;
#X connect 1 0 2 0;
#X connect 2 0 0 0;
#X connect 3 0 4 0;
#X connect 4 0 6 0;
#X connect 5 0 4 0;
#X connect 6 0 11 0;
#X connect 7 0 1 0;
#X connect 8 0 7 0;
#X connect 9 0 4 0;
#X connect 10 0 4 0;
#X connect 11 0 7 0;
#X connect 12 0 20 0;
#X connect 13 0 14 0;
#X connect 14 0 16 0;
#X connect 15 0 21 0;
#X connect 20 0 16 0;
#X connect 21 0 19 0;
#X connect 22 0 23 0;
#X connect 23 0 16 0;
#X restore 777 105 pd test_faders;
#N canvas 1 82 569 342 tests-batts 0;
#X floatatom 91 27 5 0 0 0 - - -;
#X obj 91 68 i;
#X msg 91 136 symbol \$1V;
#X obj 91 91 change;
#X msg 371 126 symbol coucou;
#X msg 365 164 matrix_1/1/text_2 \$1;
#X obj 225 135 hsl 128 15 0 1 0 0 empty empty empty -2 -8 0 10 -262144
-1 -1 0 1;
#X msg 243 109 1;
#X obj 58 31 bng 15 250 50 0 empty empty empty 17 7 0 10 -262144 -1
-1;
#X msg 222 158 battsvar_3 \$1;
#X obj 91 47 * 100;
#X obj 91 115 / 100;
#X msg 91 159 batt_matrix/2 \$1;
#X obj 130 243 s toTeleco;
#X connect 0 0 10 0;
#X connect 1 0 3 0;
#X connect 2 0 12 0;
#X connect 3 0 11 0;
#X connect 4 0 5 0;
#X connect 5 0 13 0;
#X connect 6 0 9 0;
#X connect 7 0 6 0;
#X connect 8 0 11 0;
#X connect 9 0 13 0;
#X connect 10 0 1 0;
#X connect 11 0 2 0;
#X connect 12 0 13 0;
#X restore 776 80 pd tests-batts;
#X obj 515 336 route Zero fader_1 Prev Next Confirm fader_master;
#X floatatom 773 381 5 0 0 0 - - -;
#X obj 401 265 r setCigalesMasterPressure;
#X obj 766 405 s CigalesMasterPressure;
#X obj 401 339 s toTeleco;
#X obj 30 341 s toTelecoDirect;
#X obj 36 579 s toTeleco;
#X obj 36 534 list prepend SceneText;
#X obj 36 555 list trim;
#X msg 81 442 Bon;
#X obj 36 445 l2s;
#X obj 36 385 r SceneText;
#X obj 36 465 list fromsymbol;
#X obj 36 513 list tosymbol;
#X msg 50 409 Alors\\\, c'est un texte assez longue pour voir comment
l'objet texte de O-S-C se comporte dans ce cas.;
#N canvas 1 81 450 300 replace#bynewline 0;
#X obj 75 18 inlet;
#X obj 75 226 outlet;
#X obj 94 115 sel 35;
#X msg 94 136 10;
#X obj 94 66 list split 1;
#X obj 128 85 t a;
#X obj 75 42 t b a b;
#X obj 94 178 t a;
#X msg 149 135 list;
#X obj 75 203 list;
#X obj 94 157 list append;
#X connect 0 0 6 0;
#X connect 2 0 3 0;
#X connect 2 1 10 0;
#X connect 3 0 10 0;
#X connect 4 0 2 0;
#X connect 4 1 5 0;
#X connect 5 0 4 0;
#X connect 6 0 9 0;
#X connect 6 1 4 0;
#X connect 6 2 8 0;
#X connect 7 0 9 1;
#X connect 7 0 10 1;
#X connect 8 0 7 0;
#X connect 9 0 1 0;
#X connect 10 0 7 0;
#X restore 36 487 pd replace#bynewline;
#X obj 52 219 r currentGotoSceneNum;
#X obj 30 262 list prepend 0;
#X msg 52 240 symbol \$1:;
#X obj 199 253 list prepend 0;
#X msg 235 232 symbol \$1:;
#X obj 235 211 r currentSceneNum;
#X obj 219 464 r fromTeleco;
#X floatatom 180 554 5 0 0 0 - - -;
#X obj 219 506 * 15;
#X obj 219 551 change;
#X msg 219 651 0 prop lampNoteAmp \$1;
#X obj 219 672 s toOutChan;
#X obj 219 528 i;
#X obj 297 506 * 15;
#X obj 297 551 change;
#X obj 297 528 i;
#X obj 376 505 * 15;
#X obj 376 550 change;
#X obj 376 527 i;
#X obj 454 509 * 15;
#X obj 454 554 change;
#X obj 454 531 i;
#X msg 287 630 0 prop lampConstAmp \$1;
#X msg 376 610 0 prop lampRndAmp \$1;
#X msg 454 583 0 prop lampRndSpeed \$1;
#X obj 519 539 s SHUTDOWN_CIGALES;
#X obj 527 517 bng 15 250 50 0 empty empty empty 17 7 0 10 -262144
-1 -1;
#N canvas 1 82 1167 578 EditCigale 0;
#X obj 49 20 r fromTeleco;
#X msg 49 143 EditCigaleDialog 1;
#X msg 172 143 editCigaleTitle Cigale:\$1;
#X obj 49 180 s toTeleco;
#X obj 176 118 s editCigale-num;
#X obj 509 155 r editCigale-num;
#X obj 509 176 t b f;
#X obj 476 220 spigot;
#X msg 509 198 1;
#X obj 476 197 b;
#X obj 476 241 t b b;
#X msg 517 241 0;
#X obj 476 262 f;
#X msg 476 283 1 1 1 1 1 1 1 1 1 1 1 1 1 1 1 1 1 1 1 1 1 1 1 1 1 1
1 1 1 1 1 1 1 1 1 \, from \$1 2;
#X obj 476 316 s toCigalesChannels;
#X msg 375 286 2 prop open \$1;
#X obj 375 307 s toOutChan;
#X obj 375 261 t f b;
#X obj 375 198 * 255;
#X obj 375 219 i;
#X obj 375 240 change;
#X obj 218 246 pack f f;
#X obj 277 246 t b f;
#X obj 218 201 i;
#X obj 218 222 change;
#X obj 277 182 * 255;
#X obj 277 203 i;
#X obj 277 224 change;
#X obj 218 267 t a b, f 16;
#X obj 218 317 s toOutChan;
#X msg 218 296 2 note \$1 \$2;
#X obj 218 180 * 150;
#X obj 728 27 declare -path Fraise;
#X obj 680 247 fruit/send2 CigaleMaster;
#X obj 680 205 f;
#X msg 680 226 c 66 c 255 c 100 c \$1 c 255 c 255;
#X obj 675 171 b;
#X obj 452 75 bng 15 250 50 0 empty empty empty 17 7 0 10 -262144 -1
-1;
#X msg 106 257 editCigale 1;
#X obj 34 389 r cigaleOffset1;
#X obj 976 98 r cigaleOffset2;
#X obj 88 409 r editCigale-num;
#X obj 34 410 route 0;
#X obj 34 527 s toTeleco;
#X msg 34 505 cigaleOffsetPressure \$1;
#X obj 198 393 r fromTeleco;
#X obj 198 438 spigot;
#X obj 34 435 t f b;
#X msg 88 438 0;
#X obj 61 458 del 500;
#X msg 61 479 1;
#X obj 87 479 f;
#X obj 642 355 route cigaleOffsetPressure cigaleOffsetOpen editCigaleSave
, f 59;
#X obj 198 417 route cigaleOffsetPressure;
#X obj 454 412 r editCigale-num;
#X obj 400 413 route 0;
#X obj 400 530 s toTeleco;
#X obj 564 396 r fromTeleco;
#X obj 564 441 spigot;
#X obj 400 438 t f b;
#X msg 454 441 0;
#X obj 427 461 del 500;
#X msg 427 482 1;
#X obj 453 482 f;
#X msg 400 508 cigaleOffsetOpen \$1;
#X obj 400 392 r cigaleOffset2;
#X obj 198 501 s toCigaleOffset1;
#X obj 564 497 s toCigaleOffset2;
#X obj 291 466 r editCigale-num;
#X obj 198 465 list prepend 0;
#X obj 657 470 r editCigale-num;
#X obj 564 469 list prepend 0;
#X text 1035 493 save EEPROM;
#X obj 787 471 f;
#X msg 787 492 c 66 c 255 c 99 c \$1 c 83 c 65 c 86 c 69;
#X obj 814 470 r editCigale-num;
#X obj 564 420 route cigaleOffsetOpen editCigaleSave;
#X obj 787 513 fruit/send2 CigaleMaster;
#X obj 787 452 b;
#X obj 49 43 route editCigale cigaleNote cigalePressure cigaleOpen
editCigaleShutdownConfirm EditCigaleDialog, f 102;
#X obj 556 71 sel 0;
#X msg 556 96 editCigale none;
#X obj 49 68 route none;
#X connect 0 0 79 0;
#X connect 1 0 3 0;
#X connect 2 0 3 0;
#X connect 5 0 6 0;
#X connect 5 0 34 1;
#X connect 6 0 8 0;
#X connect 6 1 12 1;
#X connect 7 0 10 0;
#X connect 8 0 7 1;
#X connect 9 0 7 0;
#X connect 10 0 12 0;
#X connect 10 1 11 0;
#X connect 11 0 7 1;
#X connect 12 0 13 0;
#X connect 13 0 14 0;
#X connect 15 0 16 0;
#X connect 17 0 15 0;
#X connect 17 1 9 0;
#X connect 18 0 19 0;
#X connect 19 0 20 0;
#X connect 20 0 17 0;
#X connect 21 0 28 0;
#X connect 22 0 21 0;
#X connect 22 1 21 1;
#X connect 23 0 24 0;
#X connect 24 0 21 0;
#X connect 25 0 26 0;
#X connect 26 0 27 0;
#X connect 27 0 22 0;
#X connect 28 0 30 0;
#X connect 28 1 9 0;
#X connect 30 0 29 0;
#X connect 31 0 23 0;
#X connect 34 0 35 0;
#X connect 35 0 33 0;
#X connect 37 0 34 0;
#X connect 38 0 3 0;
#X connect 39 0 42 0;
#X connect 41 0 42 1;
#X connect 41 0 48 0;
#X connect 42 0 47 0;
#X connect 44 0 43 0;
#X connect 45 0 53 0;
#X connect 46 0 69 0;
#X connect 47 0 44 0;
#X connect 47 1 48 0;
#X connect 47 1 49 0;
#X connect 48 0 51 0;
#X connect 49 0 50 0;
#X connect 50 0 51 0;
#X connect 51 0 46 1;
#X connect 53 0 46 0;
#X connect 54 0 55 1;
#X connect 54 0 60 0;
#X connect 55 0 59 0;
#X connect 57 0 76 0;
#X connect 58 0 71 0;
#X connect 59 0 64 0;
#X connect 59 1 60 0;
#X connect 59 1 61 0;
#X connect 60 0 63 0;
#X connect 61 0 62 0;
#X connect 62 0 63 0;
#X connect 63 0 58 1;
#X connect 64 0 56 0;
#X connect 65 0 55 0;
#X connect 68 0 69 1;
#X connect 69 0 66 0;
#X connect 70 0 71 1;
#X connect 71 0 67 0;
#X connect 73 0 74 0;
#X connect 74 0 77 0;
#X connect 75 0 73 1;
#X connect 76 0 58 0;
#X connect 76 1 78 0;
#X connect 78 0 73 0;
#X connect 79 0 82 0;
#X connect 79 1 31 0;
#X connect 79 2 25 0;
#X connect 79 3 18 0;
#X connect 79 4 37 0;
#X connect 79 5 80 0;
#X connect 80 0 81 0;
#X connect 81 0 3 0;
#X connect 82 1 1 0;
#X connect 82 1 2 0;
#X connect 82 1 4 0;
#X restore 711 543 pd EditCigale;
#X obj 219 485 route lamp_play lamp_const lamp_rnd lamp_speed shutdown_confirm
opening, f 71;
#X obj 644 588 change;
#X obj 644 565 i;
#X obj 644 543 * 255;
#X msg 644 609 0 prop open \$1;
#N canvas 1227 180 515 300 toPercent 0;
#X obj 79 46 table VoltToPercent;
#X obj 80 117 s VoltToPercent;
#X obj 80 72 loadbang;
#X msg 80 93 read volt_310to410_to_percent.txt;
#X obj 322 100 - 310;
#X obj 322 121 tabread VoltToPercent;
#X obj 322 189 outlet percent;
#X obj 342 78 * 100;
#X obj 322 165 i;
#X obj 322 53 inlet V*100;
#X floatatom 362 155 5 0 0 0 - - -;
#X obj 322 143 + 0.7;
#X connect 2 0 3 0;
#X connect 3 0 1 0;
#X connect 4 0 5 0;
#X connect 5 0 11 0;
#X connect 8 0 6 0;
#X connect 9 0 4 0;
#X connect 11 0 8 0;
#X restore 473 140 pd toPercent;
#X msg 475 227 batt_matrix/\$1 \$2V;
#X msg 248 137 1 \$1;
#X obj 251 75 hsl 128 15 3.1 4.1 0 0 empty empty empty -2 -8 0 10 -262144
-1 -1 0 1;
#X floatatom 248 95 5 0 0 0 - - -;
#X msg 404 206 batt_matrix/\$1 \$2%;
#X obj 248 116 * 100;
#X obj 605 64 r RPI_BATT;
#X obj 662 132 clip 11 12.9;
#X obj 605 109 t f f, f 10;
#X obj 662 153 maxlib/scale 11 12.9 0 100;
#X obj 605 195 pack f f, f 10;
#X obj 662 174 i;
#X msg 605 220 RpiBatt \$1V\\\ (\$2%);
#X connect 0 0 1 0;
#X connect 1 0 2 0;
#X connect 1 1 3 0;
#X connect 2 0 89 0;
#X connect 3 0 84 0;
#X connect 4 0 2 1;
#X connect 7 0 35 0;
#X connect 10 0 5 0;
#X connect 11 0 10 0;
#X connect 14 0 93 0;
#X connect 15 0 16 0;
#X connect 16 0 17 0;
#X connect 17 0 95 0;
#X connect 18 0 54 0;
#X connect 19 0 23 0;
#X connect 20 0 40 0;
#X connect 21 0 22 0;
#X connect 22 0 20 0;
#X connect 23 0 11 0;
#X connect 24 0 52 0;
#X connect 27 0 26 0;
#X connect 28 0 26 0;
#X connect 29 0 26 0;
#X connect 31 0 32 0;
#X connect 32 0 39 0;
#X connect 35 0 8 0;
#X connect 35 0 25 0;
#X connect 35 2 9 0;
#X connect 35 2 27 0;
#X connect 35 3 12 0;
#X connect 35 3 28 0;
#X connect 35 4 29 0;
#X connect 35 5 36 0;
#X connect 35 5 38 0;
#X connect 37 0 31 0;
#X connect 42 0 43 0;
#X connect 43 0 41 0;
#X connect 44 0 45 0;
#X connect 45 0 47 0;
#X connect 46 0 45 0;
#X connect 47 0 50 0;
#X connect 48 0 42 0;
#X connect 49 0 45 0;
#X connect 50 0 48 0;
#X connect 51 0 53 0;
#X connect 52 0 22 0;
#X connect 53 0 52 1;
#X connect 54 0 23 0;
#X connect 55 0 54 1;
#X connect 56 0 55 0;
#X connect 57 0 79 0;
#X connect 59 0 63 0;
#X connect 60 0 61 0;
#X connect 61 0 62 0;
#X connect 63 0 60 0;
#X connect 64 0 66 0;
#X connect 65 0 73 0;
#X connect 66 0 65 0;
#X connect 67 0 69 0;
#X connect 68 0 74 0;
#X connect 69 0 68 0;
#X connect 70 0 72 0;
#X connect 71 0 75 0;
#X connect 72 0 71 0;
#X connect 73 0 62 0;
#X connect 74 0 62 0;
#X connect 75 0 62 0;
#X connect 79 0 59 0;
#X connect 79 1 64 0;
#X connect 79 2 67 0;
#X connect 79 3 70 0;
#X connect 79 4 77 0;
#X connect 79 4 76 0;
#X connect 79 5 82 0;
#X connect 80 0 83 0;
#X connect 81 0 80 0;
#X connect 82 0 81 0;
#X connect 83 0 62 0;
#X connect 84 0 2 1;
#X connect 86 0 1 0;
#X connect 87 0 88 0;
#X connect 88 0 90 0;
#X connect 89 0 6 0;
#X connect 90 0 86 0;
#X connect 91 0 14 0;
#X connect 92 0 94 0;
#X connect 93 0 15 0;
#X connect 93 1 92 0;
#X connect 94 0 96 0;
#X connect 95 0 97 0;
#X connect 96 0 95 1;
#X connect 97 0 13 0;
#X restore 318 53 pd olds;
#X obj 220 97 spigot;
#X obj 220 120 print;
#X obj 271 103 tgl 15 0 empty empty empty 17 7 0 10 -262144 -1 -1 0
1;
#X obj 359 203 proj 1;
#X obj 406 203 proj 2;
#X obj 453 203 proj 3;
#X obj 500 203 proj 4;
#N canvas 0 94 722 374 reset_zeros 0;
#X obj 68 30 r fromTeleco;
#X obj 68 76 s RESET_ALL_ZEROS;
#X obj 68 53 route proj_home;
#X connect 0 0 2 0;
#X connect 2 0 1 0;
#X restore 435 166 pd reset_zeros;
#N canvas 1316 127 389 344 1->all 0;
#X obj 231 139 OnetoAll lumiere1;
#X obj 224 164 OnetoAll lumiere2;
#X obj 82 108 tgl 15 0 empty empty empty 17 7 0 10 -262144 -1 -1 0
1;
#X obj 82 25 r fromTeleco;
#X obj 50 208 OnetoAll pantilt;
#X obj 43 233 OnetoAll rotation;
#X obj 207 190 OnetoAll mode1 1;
#X obj 192 210 OnetoAll mode2 1;
#X obj 180 232 OnetoAll mode3 1;
#X obj 82 48 route ALL_MOT ALL_LUM;
#X obj 143 105 tgl 15 0 empty empty empty 17 7 0 10 -262144 -1 -1 0
1;
#X connect 2 0 4 0;
#X connect 2 0 5 0;
#X connect 3 0 9 0;
#X connect 9 0 2 0;
#X connect 9 1 10 0;
#X connect 10 0 0 0;
#X connect 10 0 8 0;
#X connect 10 0 7 0;
#X connect 10 0 6 0;
#X connect 10 0 1 0;
#X restore 455 267 pd 1->all;
#N canvas 2369 566 450 509 page_mot 0;
#X obj 89 53 r MONITOR;
#X obj 89 76 t b b;
#X msg 116 98 1;
#X msg 89 164 0;
#X msg 101 119 stop;
#X obj 89 187 change;
#X obj 89 214 tgl 15 0 empty empty empty 17 7 0 10 -262144 -1 -1 0
1;
#X obj 89 141 del 200;
#X obj 238 63 r fromTeleco;
#X obj 238 86 route lumiere;
#X msg 238 137 1 \, 2 \, 3 \, 4;
#X obj 238 160 t b f;
#X msg 238 183 1 \, 2;
#X obj 238 111 t b f, f 10;
#X obj 238 206 pack f f f;
#X obj 238 252 s CONTROL;
#X msg 238 229 \$2L\$1 \$3 0.2;
#X obj 89 237 t f f f;
#X obj 108 262 metro 100;
#X obj 89 316 tgl 15 0 empty empty empty 17 7 0 10 -262144 -1 -1 0
1;
#X obj 128 287 sel 1;
#X msg 128 310 set 0;
#X obj 66 266 sel 0;
#X msg 66 289 0;
#X obj 89 368 oscformat transport;
#X obj 89 397 s toTelecoDirect;
#X msg 89 337 list activity \$1;
#X connect 0 0 1 0;
#X connect 1 0 7 0;
#X connect 1 1 2 0;
#X connect 1 1 4 0;
#X connect 2 0 5 0;
#X connect 3 0 5 0;
#X connect 4 0 7 0;
#X connect 5 0 6 0;
#X connect 6 0 17 0;
#X connect 7 0 3 0;
#X connect 8 0 9 0;
#X connect 9 0 13 0;
#X connect 10 0 11 0;
#X connect 11 0 12 0;
#X connect 11 1 14 1;
#X connect 12 0 14 0;
#X connect 13 0 10 0;
#X connect 13 1 14 2;
#X connect 14 0 16 0;
#X connect 16 0 15 0;
#X connect 17 0 22 0;
#X connect 17 1 18 0;
#X connect 17 2 20 0;
#X connect 18 0 19 0;
#X connect 19 0 26 0;
#X connect 20 0 21 0;
#X connect 21 0 19 0;
#X connect 22 0 23 0;
#X connect 23 0 19 0;
#X connect 24 0 25 0;
#X connect 26 0 24 0;
#X restore 358 166 pd page_mot;
#X obj 201 301 presets_teleco mot PRESETS_MOT 32;
#X obj 200 324 presets_teleco lum PRESETS_LUM 32;
#N canvas 2040 540 807 417 lumG 0;
#X obj 78 39 r fromTeleco;
#X obj 558 293 tgl 15 0 empty empty empty 17 7 0 10 -262144 -1 -1 0
1;
#X obj 558 341 s CONTROL_LUM;
#X msg 558 313 GMute \$1;
#X obj 78 65 route Vlum LumG_Mute;
#X obj 78 88 s LUMG-Vlum;
#X obj 300 35 apsubmaster LUMG-PRESETS_LUM PRESETS_LUM LumG;
#X obj 77 122 r fromTeleco;
#X obj 205 148 list;
#X obj 205 199 s toTelecoDirect;
#X obj 361 176 list trim;
#X obj 361 204 s CONTROL;
#X obj 616 117 r PLAYED_CONTROL;
#X obj 77 147 route LumG;
#X obj 205 174 oscformat LumG;
#X obj 361 149 list prepend LumG;
#X obj 616 142 route LumG;
#X obj 77 172 s LUMG-fromTeleco;
#X obj 205 123 r LUMG-toTeleco;
#X obj 361 120 r LUMG-toMachine;
#X obj 616 167 s LUMG-PLAYED_CONTROL;
#X obj 300 58 apsubmaster LUMG-PRESETS_LUMG PRESETS_LUMG LumG;
#X obj 84 258 param_f LUMG mode1 LUMG-PRESETS_LUM LUMG-PRESETS_LUMG
LUMG-Vlum, f 64;
#X obj 84 282 param_f LUMG mode2 LUMG-PRESETS_LUM LUMG-PRESETS_LUMG
LUMG-Vlum, f 64;
#X obj 84 306 param_f LUMG mode3 LUMG-PRESETS_LUM LUMG-PRESETS_LUMG
LUMG-Vlum, f 64;
#X obj 84 328 param_f LUMG mode4 LUMG-PRESETS_LUM LUMG-PRESETS_LUMG
LUMG-Vlum, f 64;
#X obj 479 177 list trim;
#X obj 479 150 list prepend LumG;
#X obj 479 123 r LUMG-toRecord;
#X obj 479 205 s REC_CONTROL;
#X connect 0 0 4 0;
#X connect 1 0 3 0;
#X connect 3 0 2 0;
#X connect 4 0 5 0;
#X connect 7 0 13 0;
#X connect 8 0 14 0;
#X connect 10 0 11 0;
#X connect 12 0 16 0;
#X connect 13 0 17 0;
#X connect 14 0 9 0;
#X connect 15 0 10 0;
#X connect 16 0 20 0;
#X connect 18 0 8 0;
#X connect 19 0 15 0;
#X connect 26 0 29 0;
#X connect 27 0 26 0;
#X connect 28 0 27 0;
#X restore 359 232 pd lumG;
#X obj 200 350 presets_teleco LumG PRESETS_LUMG 16;
#X obj 584 442 r toTeleco;
#X obj 584 468 list trim;
#X msg 584 518 time_mot \$1;
#X obj 584 542 s toTeleco;
#X obj 584 494 route time_final time_text_final;
#X symbolatom 707 434 10 0 0 0 - - -;
#X obj 678 520 symbol;
#X msg 677 544 time_text_mot \$1;
#X obj 627 198 LyreV LyreV;
#X obj 628 224 DMX DMX;
#N canvas 2051 631 802 567 fader_test 0;
#X obj 146 133 r fromTeleco;
#X obj 146 156 route fader_test;
#X floatatom 146 179 5 0 0 0 - - -;
#X obj 144 259 hsl 128 15 0 1 0 0 empty empty empty -2 -8 0 10 -262144
-1 -1 0 1;
#X msg 141 279 fader_test \$1;
#X obj 141 302 s toTeleco;
#X obj 270 353 oscformat fader_test;
#X obj 269 380 s toTelecoDirect;
#X obj 279 325 hsl 128 15 0 1 0 0 empty empty empty -2 -8 0 10 -262144
-1 -1 0 1;
#X obj 495 268 hsl 128 15 0 1 0 0 empty empty empty -2 -8 0 10 -262144
-1 -1 0 1;
#X obj 491 372 s toTelecoDirect;
#X obj 492 345 oscformat testadd;
#X msg 492 288 list fader_test \$1;
#X obj 281 94 r fromTeleco;
#X obj 281 153 route fader_test;
#X floatatom 281 176 5 0 0 0 - - -;
#X obj 281 123 route testadd;
#X obj 537 78 hsl 128 15 0 1 0 0 empty empty empty -2 -8 0 10 -262144
-1 -1 0 1;
#X obj 533 182 s toTelecoDirect;
#X obj 534 155 oscformat testadd;
#X msg 534 98 list xy \$1 \$1;
#X connect 0 0 1 0;
#X connect 1 0 2 0;
#X connect 3 0 4 0;
#X connect 4 0 5 0;
#X connect 6 0 7 0;
#X connect 8 0 6 0;
#X connect 9 0 12 0;
#X connect 11 0 10 0;
#X connect 12 0 11 0;
#X connect 13 0 16 0;
#X connect 14 0 15 0;
#X connect 16 0 14 0;
#X connect 17 0 20 0;
#X connect 19 0 18 0;
#X connect 20 0 19 0;
#X restore 570 88 pd fader_test;
#X obj 205 494 rem CONTROLrecorder_teleco mot;
#X obj 172 441 CONTROLrecorder_teleco final transport;
#X obj 426 58 s RELOAD_PRESETS;
#X obj 426 31 bng 18 250 50 0 empty empty empty 0 -9 0 10 -262144 -1
-1;
#X msg 432 370 0;
#X msg 463 369 1;
#X msg 437 393 zerox_window \$1;
#X msg 614 318 dropdown_1 \$1;
#X obj 122 155 r toRemoteDirect;
#X obj 33 91 s fromRemote;
#X obj 32 114 r toRemote;
#X obj 220 74 r fromRemote;
#X obj 422 544 s toRemote;
#X msg 539 367 0;
#X msg 570 366 1;
#X msg 544 390 dropdown_1 \$1;
#X msg 604 366 2;
#X msg 634 367 hey;
#X msg 213 238 disconnect;
#X connect 0 0 1 0;
#X connect 1 0 10 0;
#X connect 2 0 5 0;
#X connect 3 0 4 0;
#X connect 4 0 2 0;
#X connect 6 0 7 0;
#X connect 7 0 2 0;
#X connect 8 0 6 0;
#X connect 9 0 8 0;
#X connect 10 0 46 0;
#X connect 12 0 13 0;
#X connect 14 0 12 1;
#X connect 26 0 27 0;
#X connect 27 0 30 0;
#X connect 28 0 29 0;
#X connect 30 0 28 0;
#X connect 30 1 32 0;
#X connect 32 0 33 0;
#X connect 33 0 29 0;
#X connect 40 0 39 0;
#X connect 41 0 43 0;
#X connect 42 0 43 0;
#X connect 43 0 49 0;
#X connect 45 0 6 0;
#X connect 47 0 9 0;
#X connect 48 0 12 0;
#X connect 50 0 52 0;
#X connect 51 0 52 0;
#X connect 52 0 49 0;
#X connect 53 0 52 0;
#X connect 54 0 52 0;
#X connect 55 0 2 0;
