#N canvas 2020 693 698 611 10;
#X obj 327 260 s toRemoteDirect;
#X obj 327 230 oscformat remote_server;
#X obj 327 206 list prepend entry;
#X obj 19 22 text define \$0-text;
#X obj 23 63 r fromRemote;
#X obj 23 86 route remote_server;
#X obj 23 109 route entry;
#X obj 23 132 symbol;
#X symbolatom 23 155 0 0 0 0 - - -;
#X obj 62 203 text set \$0-text;
#X msg 341 185 symbol ___;
#X msg 42 225 write -c ../remote_server_address.txt;
#X msg 327 68 read -c ../remote_server_address.txt;
#X obj 42 248 s \$0-text;
#X obj 23 178 t s b s;
#X obj 23 274 s REMOTE_SERVER_ADDRESS;
#X obj 327 91 s \$0-text;
#X obj 300 137 text get \$0-text;
#X symbolatom 300 160 0 0 0 0 - - -;
#X msg 300 116 0;
#X obj 300 22 loadbang;
#X obj 300 45 t b b;
#X obj 300 290 s REMOTE_SERVER_ADDRESS;
#X obj 300 183 t s s;
#X obj 281 21 bng 15 250 50 0 empty empty empty 17 7 0 10 -262144 -1
-1;
#X obj 113 508 shell;
#X msg 113 371 symbol central.metalu.net;
#X msg 279 372 symbol connectserver;
#X obj 113 531 print;
#X msg 172 511 pwd;
#X obj 440 383 pdcontrol;
#X msg 440 359 dir;
#X obj 113 407 pack s s, f 55;
#X obj 440 334 loadbang;
#X msg 260 492 killall autossh;
#X obj 80 347 r REMOTE_SERVER_ADDRESS;
#X msg 113 438 killall autossh && \$2/../../autossh/autossh -f -M 21990
-NR 22001:localhost:22 portail@\$1 &, f 87;
#X connect 1 0 0 0;
#X connect 2 0 1 0;
#X connect 4 0 5 0;
#X connect 5 0 6 0;
#X connect 6 0 7 0;
#X connect 7 0 8 0;
#X connect 8 0 14 0;
#X connect 10 0 2 0;
#X connect 11 0 13 0;
#X connect 12 0 16 0;
#X connect 14 0 15 0;
#X connect 14 1 11 0;
#X connect 14 2 9 0;
#X connect 17 0 18 0;
#X connect 18 0 23 0;
#X connect 19 0 17 0;
#X connect 20 0 21 0;
#X connect 21 0 19 0;
#X connect 21 1 12 0;
#X connect 23 0 22 0;
#X connect 23 1 2 0;
#X connect 24 0 21 0;
#X connect 25 0 28 0;
#X connect 26 0 32 0;
#X connect 27 0 32 0;
#X connect 29 0 25 0;
#X connect 30 0 32 1;
#X connect 31 0 30 0;
#X connect 32 0 36 0;
#X connect 33 0 31 0;
#X connect 34 0 25 0;
#X connect 35 0 32 0;
#X connect 36 0 25 0;
